<svg version="1.1" viewBox="-10 -10 1068 713.5" height="704" width="1061" id="Slovenia_Občina_2011"
     xmlns="http://www.w3.org/2000/svg">
    <title>Slovenia Občina</title>

    <path id="UE-01"
          d="M 155.80068 412.9003 L 152.09905 414.29979 L 158.70062 423.19954 L 147.19984 426.80022 L 138.10016 424.30013 L 140.09944 435.60099 L 135.99993 444.30081 L 128.49968 452.69975 L 123.00068 454.00026 L 119.99979 457.39903 L 123.00068 460.70081 L 123.60046 465.4001 L 131.30064 467.79923 L 138.10016 472.59947 L 136.50074 474.09992 L 140.00046 480.29965 L 147.30079 484.89996 L 150.69956 484.59908 L 150.89949 490.10006 L 153.10067 493.50081 L 156.49944 494.59942 L 167.69934 493.10095 L 169.90053 498.59995 L 172.89944 501.29997 L 178.80027 506.19918 L 180.79955 509.50096 L 186.79936 511.99906 L 188.69966 511.50023 L 193.40092 515.39981 L 197.90029 516.39945 L 202.70053 520.79983 L 201.50096 522.30028 L 208.90026 519.20041 L 216.60044 524.60044 L 220.19914 514.80003 L 221.00083 506.89992 L 225.59916 500.59923 L 218.9006 489.10042 L 236.10031 483.59945 L 238.80032 477.59964 L 244.8991 474.09992 L 243.09976 469.89946 L 230.59933 467.19944 L 227.00064 464.49943 L 223.90077 466.70062 L 219.39943 467.3004 L 214.90007 461.99935 L 213.9994 458.40065 L 208.10055 455.39976 L 202.39965 453.80034 L 202.59957 451.70011 L 191.10077 443.90095 L 188.20083 445.30045 L 185.39986 440.99903 L 181.90014 439.70049 L 174.59981 430.89972 L 173.49922 427.09912 L 169.79957 427.50095 L 163.70079 424.50006 L 160.39902 421.49916 L 160.10011 416.00017 L 155.80068 412.9003 z " fill="#006400">
        <title>UE Ajdovščina</title>
    </path>
    <path id="UE-02"
          d="m 702.2,486.9 0.5,-2.5 7.6,1.7 3.1,-4.2 2.9,2.5 9.1,3.2 1.1,2.2 6.8,2.6 2.9,4.7 3.7,-5.8 3.7,-4 3,0.3 11.3,-2.7 -5,-6.6 -4.3,-4.2 1,-11.9 -1.2,-4.3 8.5,-7.3 1.3,-20 -2.9,-12.7 -0.2,-4.6 4.8,-4.4 -3,-3 3.1,-1.9 0.3,-7.5 5.2,-4.1 -4.1,-4.7 -1.8,2.7 -4.6,-1 -2.2,2.5 -4.8,-1 -4.7,1.3 -4,6.7 -1.7,0.3 -10.3,7.9 -3.3,3.8 -3.9,1.1 -5.1,3.1 -1.1,-3.1 4.4,-3.8 2.5,-6.2 -1.5,-1.5 -8.2,2.5 -6.1,0.8 2.2,8.4 4.9,1 -4,5.9 1.3,4.8 -1.4,7 1.9,9.8 -2.6,7.8 -3.1,1.5 -0.3,6.3 -3.4,-1.2 -4,2.2 -8,0.3 -1.3,13.1 3,3.3 2.8,6.9 6.5,2.7 z" fill="#90ee90">
        <title>UE Brežice</title>
    </path>
    <path id="UE-03"
          d="M 601.59962 230.20013 L 588.49941 231.79955 L 588.29948 235.60016 L 590.19979 242.70056 L 592.8998 247.10094 L 594.40024 252.29906 L 590.39971 260.50005 L 599.80027 265.19934 L 597.59909 277.89969 L 598.80063 280.70065 L 596.10062 287.39922 L 597.50011 297.30058 L 599.49939 299.09993 L 598.89961 304.30003 L 596.30055 310.69969 L 596.90033 316.29964 L 596.10062 320.59908 L 599.69932 324.70056 L 607.90031 319.10061 L 610.20046 322.6993 L 618.19955 323.29909 L 623.19972 324.50063 L 624.70016 327.49955 L 623.30067 331.1992 L 618.19955 332.40074 L 618.99926 335.19973 L 624.10038 336.79915 L 631.49968 335.10075 L 635.30028 330.79934 L 643.00046 327.69947 L 640.99921 322.6993 L 642.89951 319.70039 L 642.49966 316.09971 L 644.59989 312.99985 L 644.30098 308.10063 L 635.70014 305.89945 L 634.90043 300.0006 L 641.60097 296.19999 L 642.00083 290.90092 L 643.29937 288.20091 L 641.60097 284.60023 L 642.89951 279.69904 L 646.30026 279.99992 L 650.59969 274.29901 L 645.10069 271.60098 L 648.09961 267.00067 L 643.29937 262.09947 L 646.10033 256.60047 L 643.80018 256.40054 L 636.20095 251.00052 L 635.70014 242.90048 L 633.39998 242.3007 L 624.19935 241.00018 L 613.79916 242.39967 L 610.20046 240.6993 L 606.30089 232.90015 L 601.59962 230.20013 z " fill="#77d677">
        <title>UE Celje</title>
    </path>
    <path id="UE-04"
          d="M 303.89952 463.09994 L 300.50075 466.10083 L 300.3998 469.4996 L 293.2994 484.59908 L 293.49932 490.8008 L 291.3991 497.09951 L 288.99996 500.3993 L 289.30085 503.99998 L 284.59958 507.4997 L 291.3991 515.90062 L 290.30048 516.90026 L 298.60045 526.10088 L 308.69976 526.70067 L 310.09925 533.30026 L 315.29935 535.49946 L 323.59931 544.50016 L 328.90036 548.70062 L 326.00042 553.09903 L 332.49906 563.8001 L 336.09974 567.89961 L 342.80028 569.40005 L 344.19977 571.1994 L 342.09954 578.20083 L 343.00021 580.2001 L 338.70078 591.40001 L 340.89998 593.79914 L 345.99912 594.6998 L 349.19994 600.29975 L 348.80009 608.10089 L 354.00018 607.09927 L 359.20028 607.80001 L 362.7 606.80037 L 365.90082 608.99957 L 367.50025 602.39998 L 365.59994 595.80039 L 368.89974 596.29922 L 373.69998 594.80075 L 379.60081 589.09985 L 387.00011 574.69912 L 387.90078 565.7004 L 385.00084 564.90069 L 384.60098 556.6997 L 382.59973 549.99916 L 378.99905 541.49927 L 377.39963 534.8007 L 380.80038 532.79945 L 384.89988 537.50072 L 390.69976 535.60041 L 386.49931 528.60097 L 388.19968 523.40087 L 387.5999 516.70033 L 382.90061 516.5004 L 380.09964 513.40053 L 386.2004 510.59957 L 382.19987 507.2008 L 381.20023 501.19901 L 376.79985 499.39966 L 369.8004 491.29963 L 366.99944 486.80027 L 363.69964 479.80082 L 366.30068 475.80029 L 362.1992 468.19908 L 356.50027 473.19925 L 351.39915 472.59947 L 347.40059 477.79957 L 342.80028 478.70023 L 338.79975 473.19925 L 335.69988 472.59947 L 332.70097 479.69987 L 329.9 478.59928 L 323.9002 470.49924 L 323.79924 470.49924 L 321.60004 473.59911 L 318.50017 473.50013 L 318.10032 469.2007 L 313.69993 469.60056 L 307.99902 463.09994 L 303.89952 463.09994 z " fill="#268826">
        <title>UE Cerknica</title>
    </path>
    <path id="UE-05"
          d="M 597.59909 549.70026 L 593.60053 554.19962 L 585.5005 557.49941 L 583.29932 560.30038 L 577.60039 555.50014 L 568.50071 556.29985 L 564.50018 558.6 L 560.29972 558.40008 L 552.90042 556.20087 L 548.59901 556.6997 L 545.90098 559.19979 L 544.2006 567.40078 L 538.69963 570.30072 L 536.90028 574.00037 L 540.20007 577.39914 L 536.39947 582.99909 L 538.2008 584.80042 L 542.50023 593.99907 L 548.10018 596.6001 L 550.29939 599.10019 L 548.59901 603.79948 L 551.50093 607.20022 L 549.89953 610.50002 L 550.49931 616.69975 L 558.10052 619.19984 L 556.69905 623.89913 L 549.89953 624.00008 L 545.20024 630.99953 L 546.79966 637.30021 L 551.29902 636.90036 L 556.69905 632.89983 L 560.69958 631.99916 L 563.19966 635.00006 L 561.80017 640.00023 L 557.39978 639.49942 L 552.7005 641.7006 L 548.10018 645.40025 L 546.19988 649.49976 L 555.49948 653.79919 L 554.8997 660.20083 L 560.69958 662.90084 L 567.69902 670.50007 L 572.80015 671.80059 L 575.1003 677.49952 L 581.39901 682.00086 L 586.50014 681.59902 L 589.29912 678.90099 L 595.39988 680.59938 L 600.2991 680.19953 L 601.99947 674.90046 L 606.70074 667.69911 L 617.30086 661.6993 L 624.19935 664.90012 L 631.60063 666.40057 L 634.39962 667.89903 L 639.99957 666.00071 L 643.69922 657.50082 L 652.49999 650.69932 L 645.79945 648.50012 L 642.80054 645.40025 L 636.09999 641.59965 L 633.59991 636.79941 L 630.59902 635.79977 L 629.70033 631.70026 L 625.29994 628.60039 L 624.19935 606.20059 L 623.10074 608.30082 L 617.50079 612.69922 L 614.89975 607.0003 L 610.80025 608.59972 L 606.79971 606.09963 L 602.70021 600.89954 L 594.60017 597.59974 L 595.99967 592.99943 L 601.59962 593.30031 L 606.39986 585.89903 L 607.79935 581.10077 L 614.40092 579.09951 L 617.19991 576.1006 L 610.20046 569.40005 L 611.70091 566.30019 L 608.89994 562.29965 L 602.30035 558.0992 L 600.49903 550.6999 L 597.59909 549.70026 z " fill="#90ee90">
        <title>UE Črnomelj</title>
    </path>
    <path id="UE-06"
          d="M 492.19964 315.60089 L 485.69902 318.19994 L 481.30061 318.00002 L 478.09979 320.70003 L 467.29974 319.10061 L 459.19971 321.09988 L 451.09967 321.29981 L 447.20009 323.99982 L 442.19992 318.19994 L 434.49974 318.00002 L 431.90068 321.00091 L 424.4994 320.70003 L 419.89909 317.40023 L 409.90073 319.30054 L 405.39939 324.50063 L 398.90075 327.80043 L 396.69957 325.59924 L 396.29972 325.7002 L 394.19949 325.39932 L 392.00028 321.49974 L 381.99994 328.49918 L 377.50058 332.49972 L 378.70015 338.00069 L 373.50005 340.10092 L 371.99961 345.09911 L 369.60047 345.70088 L 371.7007 351.90061 L 372.99924 354.49967 L 381.60009 359.69977 L 385.00084 359.29991 L 387.79982 361.90095 L 395.39905 365.00082 L 395.50001 368.39958 L 404.19982 369.39922 L 410.30059 365.40067 L 414.70097 364.30008 L 415.99951 359.09998 L 420.70078 356.90078 L 425.79992 358.59917 L 429.29965 361.99992 L 434.20084 360.49948 L 437.99946 361.60007 L 438.9991 366.00045 L 441.60014 368.10068 L 447.00017 367.39995 L 455.30013 362.3008 L 458.90081 362.3008 L 463.49914 354.49967 L 468.40034 353.89989 L 473.69941 349.60045 L 476.59935 345.00014 L 474.00029 343.49969 L 471.30027 338.89938 L 470.59954 333.89921 L 476.79927 333.89921 L 482.10032 332.60067 L 485.69902 329.99963 L 491.09904 331.50008 L 496.00024 325.10042 L 494.60075 317.00038 L 492.19964 315.60089 z " fill="#268826">
        <title>UE Domžale</title>
    </path>
    <path id="UE-07"
          d="m 554.4,109.8 -5.7,-3.3 -7.9,0.2 -7.9,5.1 -6.9,9.2 0.2,3.1 -5.2,6.3 -1.6,-3 -1.5,-8.1 -4.7,-3.6 -11,11.7 7.2,8 2.1,-1.7 3.9,2.6 1.9,4.6 7.4,3.9 4.1,3.9 2.6,-0.7 1,5.7 -1.7,3.6 5.6,6.4 1.5,-3.6 h 3.6 l 3.6,-6.7 4.9,-3.1 1.7,0.7 6.7,-3.1 3.1,-0.1 1.4,-0.8 -1.3,-8.1 2,-4.9 5.6,-0.4 -6.2,-5.5 -3.9,-5.5 -1.9,-11.3 z" fill="#77d677">
        <title>UE Dravograd</title>
    </path>
    <path id="UE-08"
          d="m 806.40069,73.225303 -9.10165,0.399855 -10.6991,3.600676 -3.20082,3.099868 4.80024,5.400024 1.50045,-0.79971 2.50008,-1.700375 3.89958,5.599952 -2.30016,2.399132 5.2001,2.300157 1.80133,3.499722 16.49897,3.699646 0.39986,3.40075 -2.19921,5.70091 2.39914,1.69839 13.40108,2.70002 -4.00053,4.40038 -5.30105,2.30016 2.00126,2.80096 -0.10096,3.79863 3.80061,5.40002 6.90047,3.49973 7.1004,0.30088 2.4981,1.30052 -0.2989,5.49899 -2.89994,4.00054 0.99964,3.09986 4.49936,5.90084 2.50008,5.20009 4.40039,5.40003 v 2.1992 l 3.89958,3.00089 3.40075,-10.40019 2.80096,-4.30141 5.09915,-0.099 6.90047,1.59942 -0.70074,-6.99944 1.70037,-3.69965 4.00054,0.099 -1.00162,-9.69945 -2.70001,-4.29944 5.30105,-6.60157 5.90083,-0.39985 -2.70001,-3.5987 -8.00107,-7.30032 -12.99925,-9.69946 0.69876,-2.30016 -1.49847,-0.80169 -6.90047,-2.99891 -4.90119,-8.100039 -4.69929,-1.700374 -7.30033,-0.999638 -5.499,-1.599421 -8.10003,-8.100036 -8.00107,-3.000894 -4.89921,-2.798986 z" fill="#68c868">
        <title>UE Gornja Radgona</title>
    </path>
    <path id="UE-09"
          d="M 431.5998 405.99983 L 427.99913 409.40058 L 425.49904 408.10006 L 421.79939 411.10095 L 424.29948 414.60067 L 420.09902 416.20009 L 419.09938 419.10003 L 410.10066 417.70054 L 405.59932 419.10003 L 402.40048 414.89957 L 399.50054 417.90047 L 392.69904 420.69945 L 394.50037 424.59903 L 395.89986 441.6008 L 394.19949 446.60096 L 396.6006 453.80034 L 398.39995 455.90057 L 406.69991 463.20089 L 408.0994 470.60019 L 410.70044 471.59983 L 411.1003 478.59928 L 408.89911 480.20068 L 409.09904 484.10025 L 412.69972 482.99966 L 420.59983 488.19976 L 426.59963 495.89994 L 426.30073 497.69929 L 431.99966 503.00034 L 432.90032 505.50042 L 440.80043 511.90009 L 443.99927 513.60046 L 445.60067 517.89989 L 451.80041 525.29919 L 459.99942 532.50055 L 468.80019 539.30006 L 470.39961 540.80051 L 476.30044 533.39923 L 472.69977 530.29936 L 471.19932 526.90059 L 465.59937 524.80037 L 462.89936 517.50004 L 462.4995 511.90009 L 464.19988 507.29977 L 468.69924 505.90028 L 473.89933 508.60029 L 479.40031 508.49934 L 481.79944 505.50042 L 480.99973 501.49989 L 481.50054 490.29999 L 479.00046 489.70021 L 476.7003 480.4006 L 480.59988 479.80082 L 488.80087 480.49958 L 489.40065 476.00022 L 487.30042 473.89999 L 482.79908 466.30076 L 489.49962 456.19947 L 487.59932 447.49965 L 490.49926 443.60007 L 489.69955 438.39997 L 494.69972 437.40034 L 498.5993 435.10018 L 503.19961 430.49987 L 498.90018 429.79913 L 490.09941 416.59995 L 487.70028 409.89941 L 482.79908 410.29926 L 482.90003 414.29979 L 478.8995 415.60031 L 474.60007 413.50008 L 472.20094 414.29979 L 465.59937 411.50081 L 461.29994 407.10042 L 455.59903 409.6005 L 453.10093 413.1992 L 449.3993 414.09986 L 445.8006 412.19956 L 443.39949 414.40075 L 436.49902 412.50044 L 436.09916 410.20029 L 431.5998 405.99983 z " fill="#268826">
        <title>UE Grosuplje</title>
    </path>
    <path id="UE-10"
          d="m 563.8,328.1 -1.5,-0.9 0.8,2.9 -8.7,2.5 -1.4,3.5 1.5,3.6 -4.2,2.4 -3.9,4.2 1.4,6.5 4.4,7.3 6,2.1 0.6,4.8 1.9,2.3 6.9,3.6 h 5.6 l 4.7,-3.4 -6.9,-5.3 3.8,-2 7.9,2.8 3.7,-6 -0.3,-4 -3.6,-6.3 -4.3,-2.5 0.3,-3.6 -3.5,-4 -6.3,0.7 1.1,-4.1 z" fill="#268826">
        <title>UE Hrastnik</title>
    </path>
    <path id="UE-11"
          d="M 198.89992 322.80026 L 194.40056 330.30051 L 188.09987 329.7997 L 176.59909 332.60067 L 174.90069 336.30032 L 167.09956 342.89991 L 168.00022 349.09964 L 165.19926 352.59937 L 171.40097 360.89933 L 170.79921 371.60041 L 172.60054 376.8005 L 169.30074 382.40045 L 166.4008 381.29986 L 165.39919 386.40099 L 158.70062 382.49943 L 158.7996 389.70078 L 162.09939 389.79975 L 162.80013 395.30073 L 160.19909 401.50047 L 160.10011 410.89904 L 155.80068 412.9003 L 160.10011 416.00017 L 160.39902 421.49916 L 163.70079 424.50006 L 169.79957 427.50095 L 173.49922 427.09912 L 174.59981 430.89972 L 181.90014 439.70049 L 185.39986 440.99903 L 188.20083 445.30045 L 191.10077 443.90095 L 202.59957 451.70011 L 202.39965 453.80034 L 208.10055 455.39976 L 213.9994 458.40065 L 214.90007 461.99935 L 219.39943 467.3004 L 223.90077 466.70062 L 227.00064 464.49943 L 230.59933 467.19944 L 243.09976 469.89946 L 241.99916 461.70045 L 235.5995 455.10086 L 235.90038 449.70083 L 234.59986 445.7003 L 238.69937 442.09962 L 239.09923 437.89917 L 241.79924 435.89989 L 241.70026 432.40017 L 238.6004 429.39927 L 237.80069 426.0005 L 239.70099 422.70071 L 243.60057 422.99961 L 249.8003 411.79971 L 248.29985 411 L 241.10048 409.80043 L 236.10031 403.20084 L 236.79907 400.5998 L 234.59986 396.30037 L 231.80088 397.89979 L 229.10087 394.90088 L 227.29954 389.30093 L 224.19967 388.29931 L 220.50002 384.30076 L 212.70087 379.59949 L 212.29903 379.30059 L 208.90026 373.90056 L 208.59938 371.20055 L 212.29903 363.30044 L 217.09927 359.89969 L 217.20023 356.50092 L 221.00083 350.29921 L 221.0998 347.79912 L 225.30026 343.29976 L 226.69976 339.89902 L 226.69976 335.59958 L 215.69978 332.60067 L 210.60064 334.00016 L 207.9996 332.29979 L 203.59921 334.00016 L 199.69963 332.00089 L 198.10021 327.29962 L 198.89992 322.80026 z " fill="#006400">
        <title>UE Idrija</title>
    </path>
    <path id="UE-12"
          d="m 241.2,654.7 5.1,2.6 h 3.2 l 3.5,-2.6 6.7,0.9 10.6,4.6 -0.4,-6 5.3,-8.9 7.1,-1.8 7.4,10.7 2.4,-2.9 3.7,-0.9 1.5,2.6 5,2.1 3.3,-1.3 1.1,4.6 2.7,0.4 7.2,-6.2 4.1,0.9 10.1,-4.6 1.9,-3.1 5.1,-4.4 6.5,0.3 1.9,-3.4 4.5,-1.6 6.7,-6.5 4.2,-1.4 3.7,-5.7 -1.1,-7 1.7,-7.1 -3.2,-2.2 -3.5,1 -5.2,-0.7 -5.2,1 0.4,-7.8 -3.2,-5.6 -5.1,-0.9 -2.2,-2.4 4.3,-11.2 -0.9,-2 -8.3,1.3 -2.3,-1.5 -5.5,0.8 -0.4,-6 -4.5,-7.1 -4.9,-5.7 -7.3,3.1 4.3,7.2 -20.7,4 -5.7,3.3 -6.2,2.3 -2.6,4.4 -4,2.8 -17.8,2.2 -8.4,-5.7 -6.3,0.2 -1.9,4.9 -3.6,1.2 -1.6,-2 v 4.3 l 3.8,3.5 -0.4,4.5 -3.6,2.4 -1.5,6.2 0.7,4 6.2,2.9 -0.1,4.6 -3.5,3.5 0.5,4.6 -3.1,9.1 3.5,0.7 1.7,3.6 4.2,1.1 2.6,7.4 z" fill="#278927">
        <title>UE Ilirska Bistrica</title>
    </path>
    <path id="UE-13"
          d="m 103.2,623.8 -9.5,2.9 -3.6,3.9 -6.7,0.1 -5.4,-3.3 1.7,3.9 -0.5,4.2 3.4,5.9 0.6,7 7.3,7.2 0.7,3 5.1,-1.5 1.2,-8.7 2.1,-5.5 3.1,-3.9 -0.8,-4.2 1.5,-4.2 -1.2,-4.8 z" fill="#278927">
        <title>UE Izola/Isola</title>
    </path>
    <path id="UE-14"
          d="M 109.99945 167.7 L 110.59923 175.49915 L 106.69965 177.59938 L 106.60068 185.80037 L 108.59995 187.39979 L 103.30088 193.50055 L 104.99928 198.79962 L 103.30088 204.79943 L 100.19904 207.8993 L 98.100787 214.50087 L 99.199399 216.19926 L 105.19921 213.20035 L 110.70018 211.80086 L 113.4002 208.99989 L 118.00051 207.09959 L 121.70016 212.49961 L 124.49915 214.19999 L 131.19969 214.9997 L 135.8 219.00023 L 140.09944 220.39972 L 143.10033 228.0999 L 142.70048 231.30072 L 145.69939 234.29964 L 149.69992 235.69913 L 151.89912 236.39987 L 163.90072 229.29947 L 168.00022 227.59909 L 172.60054 223.80047 L 178.80027 222.6009 L 183.29963 213.0994 L 188.89958 211.39902 L 193.10004 211.49998 L 193.10004 207.20054 L 198.59904 206.40083 L 217.40015 215.10065 L 225.19931 218.00059 L 233.20037 226.1996 L 240.7996 222.80083 L 243.20071 224.69915 L 240.99953 229.69932 L 246.79941 240.09952 L 252.50031 234.00074 L 257.79938 235.60016 L 264.40095 233.89978 L 264.80081 227.70005 L 267.99965 223.40062 L 270.40076 217.80066 L 274.79917 215.30058 L 278.59977 215.10065 L 279.90029 210.30041 L 272.90084 205.19929 L 269.39914 206.89966 L 265.29964 205.50017 L 258.10026 209.90055 L 252.50031 208.09923 L 247.59912 202.60023 L 246.90036 198.3008 L 242.19909 189.39907 L 236.70009 187.9006 L 232.89949 185.20059 L 225.50019 184.29993 L 219.1995 181.59991 L 216.00066 181.70087 L 208.99924 187.10089 L 204.89973 187.10089 L 199.2008 181.70087 L 192.99909 179.89954 L 184.2003 172.90009 L 179.40005 171.7995 L 174.19996 168.40073 L 168.90089 169.20044 L 164.5005 167.7 L 156.69937 171.70053 L 147.59969 169.80023 L 142.70048 174.89937 L 135.99993 175.90099 L 131.39962 172.70017 L 123.00068 169.80023 L 117.4997 170.29906 L 113.80005 168.00088 L 109.99945 167.7 z " fill="#62c262">
        <title>UE Jesenice</title>
    </path>
    <path id="UE-15"
          d="M 386.29938 240.6993 L 385.20077 242.5996 L 378.10037 243.10041 L 376.70087 245.6005 L 381.40016 250.80059 L 377.59956 258.9996 L 382.99958 263.59992 L 379.1 268.09928 L 377.1997 272.69959 L 382.1009 279.20021 L 381.00031 284.09942 L 385.20077 285.00009 L 387.20004 293.30005 L 385.60062 299.00096 L 382.79965 299.60074 L 377.50058 307.70078 L 373.69998 311.4994 L 369.8004 311.89926 L 365.40002 319.30054 L 372.79932 327.09969 L 372.90027 331.30015 L 377.50058 332.49972 L 381.99994 328.49918 L 392.00028 321.49974 L 394.19949 325.39932 L 396.29972 325.7002 L 396.69957 325.59924 L 398.90075 327.80043 L 405.39939 324.50063 L 409.90073 319.30054 L 419.89909 317.40023 L 424.4994 320.70003 L 431.90068 321.00091 L 434.49974 318.00002 L 442.19992 318.19994 L 447.20009 323.99982 L 451.09967 321.29981 L 459.19971 321.09988 L 467.29974 319.10061 L 478.09979 320.70003 L 481.30061 318.00002 L 485.69902 318.19994 L 492.19964 315.60089 L 494.60075 317.00038 L 497.90054 316.00074 L 498.99915 310.40079 L 496.60002 304.89981 L 490.49926 303.79922 L 489.80051 301.79994 L 482.59915 298.39919 L 480.20002 295.80014 L 464.1009 293.49998 L 459.70052 295.00043 L 448.39966 295.80014 L 439.89977 292.50034 L 431.5998 292.39939 L 428.69986 288.09995 L 431.79973 283.00081 L 431.5998 279.69904 L 424.4994 281.19948 L 421.70042 280.19985 L 422.79903 275.50056 L 421.79939 267.69942 L 416.59929 265.90007 L 409.9997 258.19989 L 409.9997 242.3007 L 402.40048 245.40057 L 396.20074 244.40093 L 393.70066 246.69911 L 386.29938 240.6993 z " fill="#268826">
        <title>UE Kamnik</title>
    </path>
    <path id="UE-16"
          d="M 505.29984 517.80092 L 499.80084 519.8002 L 496.99988 525.09927 L 496.49907 528.60097 L 493.19927 532.99938 L 482.1993 525.60008 L 476.59935 526.99957 L 471.19932 526.90059 L 472.69977 530.29936 L 476.30044 533.39923 L 470.39961 540.80051 L 468.80019 539.30006 L 464.90061 544.70009 L 464.79966 547.70098 L 453.70071 559.9995 L 456.29977 568.00056 L 458.29904 570.30072 L 454.70035 576.59943 L 455.50006 581.10077 L 453.1999 582.70019 L 445.69965 581.5996 L 440.00072 576.59943 L 438.79917 582.19938 L 429.09972 583.10004 L 434.49974 588.69999 L 437.50064 599.19916 L 429.20067 603.79948 L 426.59963 608.19986 L 429.49957 614.59952 L 428.80082 619.90058 L 426.59963 621.5 L 425.6 631.30041 L 430.29928 634.20035 L 430.69914 630.70062 L 436.90085 630.10084 L 451.89938 641.90053 L 458.20007 642.90017 L 458.4 645.49922 L 461.20096 644.49959 L 463.60009 647.59945 L 464.30083 655.69949 L 467.89953 659.30017 L 468.09945 664.39931 L 473.69941 664.19938 L 485.60005 661.29944 L 486.99954 658.79936 L 491.50088 657.10096 L 495.89929 657.30089 L 498.79923 654.89978 L 500.40063 644.29966 L 499.40099 637.50014 L 502.00005 632.89983 L 505.6997 632.30004 L 515.30018 640.79994 L 517.00055 641.19979 L 521.40094 646.59982 L 523.89905 647.70041 L 532.10004 647.39953 L 536.3005 652.59962 L 546.19988 649.49976 L 548.10018 645.40025 L 552.7005 641.7006 L 557.39978 639.49942 L 561.80017 640.00023 L 563.19966 635.00006 L 560.69958 631.99916 L 556.69905 632.89983 L 551.29902 636.90036 L 546.79966 637.30021 L 545.20024 630.99953 L 549.89953 624.00008 L 556.69905 623.89913 L 558.10052 619.19984 L 550.49931 616.69975 L 549.89953 610.50002 L 551.50093 607.20022 L 548.59901 603.79948 L 550.29939 599.10019 L 548.10018 596.6001 L 542.50023 593.99907 L 538.2008 584.80042 L 536.39947 582.99909 L 533.40056 580.50098 L 531.30033 572.60087 L 531.59923 563.09937 L 523.89905 558.49905 L 521.29999 553.70079 L 516.29982 550.60092 L 515.80099 542.59986 L 516.40077 538.30043 L 519.39969 536.99991 L 522.00072 529.29973 L 520.79918 522.10035 L 509.59928 520.29903 L 505.29984 517.80092 z " fill="#268826">
        <title>UE Kočevje</title>
    </path>
    <path id="UE-17"
          d="M 162.80013 594.49987 L 160.30004 595.20061 L 159.10048 601.20042 L 155.4998 602.90079 L 154.50016 606.69942 L 150.49963 607.80001 L 142.10069 608.39979 L 131.7005 607.0003 L 120.59957 600.49968 L 116.89992 601.29939 L 111.10004 603.90043 L 109.59959 606.89934 L 115.10057 608.99957 L 118.49934 611.69958 L 120.39964 615.90004 L 118.69927 618.99991 L 115.70035 619.30079 L 111.29997 626.30024 L 108.99981 624.39994 L 103.19993 623.80015 L 102.20029 625.79943 L 103.39986 630.59967 L 101.89941 634.80013 L 102.69912 639.00059 L 99.599254 642.90017 L 97.499025 648.39916 L 108.99981 650.00056 L 109.39967 652.3997 L 100.69985 662.70092 L 100.19904 668.70072 L 95.699677 671.20081 L 99.50028 671.80059 L 104.30052 667.49918 L 108.00017 667.99999 L 119.09912 663.70055 L 124.40017 663.50063 L 133.40087 661.49937 L 136.9006 663.10077 L 140.40032 666.49954 L 138.89987 671.20081 L 141.99974 672.8992 L 142.70048 676.4009 L 149.30007 676.10002 L 154.30023 677.09966 L 156.80032 679.90063 L 166.20088 680.19953 L 169.50067 672.6003 L 175.1996 667.49918 L 188.89958 666.49954 L 193.29997 670.19919 L 197.90029 666.29961 L 197.90029 660.49973 L 201.79986 658.90031 L 200.29942 653.90014 L 195.4002 648.89997 L 191.70055 647.79938 L 190.50098 643.19907 L 195.60013 639.09956 L 198.30014 641.39972 L 203.10038 641.90053 L 203.39928 636.59948 L 201.79986 636.70043 L 196.39984 631.90019 L 190.50098 620.90021 L 178.00056 623.80015 L 174.00003 616.49983 L 170.59928 616.69975 L 167.40044 613.09908 L 163.30094 599.10019 L 162.80013 594.49987 z " fill="#278927">
        <title>UE Koper/Capodistria</title>
    </path>
    <path id="UE-18"
          d="M 371.7007 212.69954 L 366.90046 214.19999 L 362.7 219.40008 L 353.89923 214.9997 L 346.40096 214.39991 L 342.60035 220.10082 L 342.40043 225.30092 L 338.30092 229.00057 L 339.1996 233.19905 L 337.60018 235.80008 L 333.59965 237.19958 L 335.30003 245.29961 L 334.19944 248.99926 L 327.90073 250.40074 L 317.70046 249.10022 L 315.20038 253.99943 L 310.29918 256.29959 L 308.89969 258.59975 L 308.69976 264.39963 L 301.90024 261.69962 L 297.80074 262.69925 L 288.99996 261.60064 L 287.20062 275.50056 L 289.50077 283.69957 L 291.3991 285.30097 L 289.19989 286.30061 L 283.09913 285.59987 L 279.99926 286.90039 L 270.09988 282.5 L 266.29927 284.00045 L 260.00057 281.30044 L 256.00003 282.39905 L 263.99912 286.90039 L 266.69913 294.29969 L 269.59907 297.30058 L 279.19955 297.70044 L 283.20008 300.09957 L 290.10056 301.40009 L 294.29903 305.09974 L 293.20042 308.70041 L 288.89901 310.89962 L 292.89954 316.60052 L 296.79912 313.70058 L 299.40016 319.19958 L 308.2999 319.50046 L 313.10015 325.10042 L 318.19929 324.50063 L 321.99989 327.8994 L 326.0994 327.29962 L 331.20052 339.29923 L 339.90034 334.59995 L 337.49923 332.40074 L 334.39936 324.19975 L 339.99931 323.40004 L 343.29911 324.99946 L 351.59907 323.40004 L 355.19975 321.20084 L 353.89923 317.40023 L 365.40002 319.30054 L 369.8004 311.89926 L 373.69998 311.4994 L 377.50058 307.70078 L 382.79965 299.60074 L 385.60062 299.00096 L 387.20004 293.30005 L 385.20077 285.00009 L 381.00031 284.09942 L 382.1009 279.20021 L 377.1997 272.69959 L 379.1 268.09928 L 382.99958 263.59992 L 377.59956 258.9996 L 381.40016 250.80059 L 376.70087 245.6005 L 378.10037 243.10041 L 385.20077 242.5996 L 386.29938 240.6993 L 386.29938 238.39914 L 383.39944 235.60016 L 381.99994 228.00093 L 378.90008 223.80047 L 377.99941 219.90089 L 375.60028 218.60037 L 371.7007 212.69954 z " fill="#62c262">
        <title>UE Kranj</title>
    </path>
    <path id="UE-19"
          d="M 683.19977 380.30022 L 674.40097 381.89965 L 669.00095 380.50015 L 666.09903 382.49943 L 660.20018 382.2995 L 658.40083 383.79995 L 658.40083 390.19961 L 660.00025 402.70003 L 663.39902 405.7999 L 664.29968 410.49919 L 662.10048 417.70054 L 649.4991 423.70035 L 649.4991 428.90044 L 645.70048 436.80055 L 641.89987 438.29902 L 641.69995 442.29955 L 638.69905 446.39906 L 639.50074 459.69919 L 636.09999 463.69972 L 640.90024 465.99988 L 646.10033 464.49943 L 650.70065 467.19944 L 650.19984 471.79976 L 651.99919 476.09919 L 656.50053 477.10081 L 646.59916 482.10098 L 651.79926 488.50064 L 649.29917 494.99928 L 651.30043 500.50026 L 658.00097 504.70071 L 659.00061 509.90081 L 665.20035 508.20044 L 677.9007 509.59993 L 682.20013 507.40073 L 680.29983 503.60012 L 680.49975 498.50098 L 683.10079 497.29943 L 683.10079 493.70074 L 687.60015 491.60051 L 696.60085 496.80061 L 701.7 492.80007 L 702.20081 486.89924 L 699.50079 483.59945 L 693.00018 480.89943 L 690.19921 474.00094 L 687.2003 470.69917 L 688.50082 457.60094 L 696.4999 457.30006 L 700.50043 455.10086 L 703.8992 456.30042 L 704.20008 449.99973 L 707.29995 448.49929 L 709.90099 440.70013 L 708.00069 430.89972 L 709.40018 423.90028 L 708.09966 419.10003 L 712.10019 413.1992 L 707.20097 412.19956 L 704.99979 403.80062 L 705.19972 401.19959 L 703.20044 390.70042 L 699.90065 390.39954 L 697.49954 384.30076 L 693.99982 382.80031 L 690.70002 385.99915 L 683.19977 380.30022 z " fill="#90ee90">
        <title>UE Krško</title>
    </path>
    <path id="UE-20"
          d="M 607.90031 319.10061 L 599.69932 324.70056 L 596.10062 320.59908 L 593.20068 325.79917 L 587.6997 325.7002 L 583.40027 327.49955 L 577.89929 324.79953 L 575.19928 326.10005 L 563.79945 328.09933 L 569.79925 335.19973 L 568.70064 339.29923 L 574.99935 338.60048 L 578.49907 342.59903 L 578.20017 346.1997 L 582.4996 348.69979 L 586.10028 355.00048 L 586.39918 358.99903 L 582.69953 365.00082 L 574.79942 362.19985 L 571.0008 364.19913 L 577.89929 369.50018 L 573.2 372.90092 L 567.60005 372.90092 L 560.69958 369.30025 L 560.29972 375.89984 L 554.49984 377.0994 L 549.4007 382.49943 L 549.49968 387.69953 L 552.90042 393.60036 L 556.40015 394.09919 L 563.79945 394.29912 L 571.60058 391.70006 L 578.4001 394.40007 L 591.99913 397.10008 L 594.29929 400.99966 L 598.20085 400.3009 L 604.40058 395.99949 L 600.49903 391.5991 L 595.99967 392.20087 L 593.69951 390.50049 L 594.20032 385.70025 L 591.50031 379.59949 L 587.00094 376.60057 L 590.70059 373.59968 L 595.00003 374.99917 L 598.29982 372.49909 L 602.39933 376.60057 L 608.39914 377.00043 L 614.29997 372.79997 L 614.60085 376.8005 L 617.30086 379.99934 L 616.29924 385.19944 L 619.30014 384.90054 L 619.39911 381.09994 L 624.50023 381.40082 L 629.39945 378.09904 L 640.90024 379.30059 L 644.0001 378.50088 L 648.29954 372.69902 L 649.4991 366.00045 L 647.20092 361.90095 L 649.4991 360.49948 L 646.10033 353.19915 L 645.50055 349.29957 L 642.89951 344.40036 L 642.89951 340.1999 L 647.40085 338.89938 L 646.90004 330.99927 L 643.00046 327.69947 L 635.30028 330.79934 L 631.49968 335.10075 L 624.10038 336.79915 L 618.99926 335.19973 L 618.19955 332.40074 L 623.30067 331.1992 L 624.70016 327.49955 L 623.19972 324.50063 L 618.19955 323.29909 L 610.20046 322.6993 L 607.90031 319.10061 z " fill="#77d677">
        <title>UE Laško</title>
    </path>
    <path id="UE-21"
          d="M 791.89901 83.199908 L 789.40091 84.900282 L 787.59958 88.400005 L 788.50024 94.300838 L 787.19972 97.800561 L 783.50007 101.70014 L 787.39965 109.29937 L 782.59941 109.80018 L 777.9991 115.60005 L 775.29908 116.19984 L 775.40004 120.00044 L 771.59943 129.39902 L 771.79936 135.49978 L 774.49937 140.10009 L 772.10024 144.79938 L 776.39967 149.9005 L 776.79953 152.89942 L 771.30053 156.19921 L 775.90085 157.40076 L 777.9991 155.1006 L 782.99926 159.09915 L 782.59941 162.80078 L 788.70017 165.70072 L 791.99997 169.20044 L 793.10056 172.90009 L 788.59922 174.40054 L 788.30032 177.39945 L 791.20025 179.89954 L 792.90063 180.8002 L 798.30065 176.59974 L 802.69906 174.89937 L 802.69906 172.79914 L 806.80055 164.80006 L 807.80018 161.10041 L 809.90041 160.79953 L 814.10087 156.10024 L 814.39977 153.4992 L 826.59932 161.90012 L 826.79924 159.79989 L 829.69918 157.69966 L 832.70008 159.00018 L 834.89928 163.80042 L 839.09974 160.5996 L 842.90034 160.39967 L 846.20014 156.50009 L 841.70078 150.59926 L 840.69916 147.49939 L 843.5991 143.50084 L 843.89998 137.99986 L 841.3999 136.69934 L 834.2995 136.40044 L 827.39903 132.90072 L 823.6004 127.50069 L 823.69938 123.70009 L 821.7001 120.89913 L 826.99917 118.60095 L 830.9997 114.20056 L 817.60059 111.50055 L 815.19948 109.80018 L 817.40067 104.09927 L 817.00081 100.7005 L 800.49986 97.00085 L 798.70051 93.499148 L 793.50041 91.200971 L 795.80057 88.79986 L 791.89901 83.199908 z " fill="#389a38">
        <title>UE Lenart</title>
    </path>
    <path id="UE-22"
          d="M 972.09909 81.800415 L 968.59937 86.800584 L 966.99995 92.099655 L 961.50095 89.199715 L 957.99925 91.899728 L 955.20026 97.200778 L 954.0007 105.10089 L 950.9998 106.39943 L 952.70018 110.70084 L 948.00089 108.80054 L 943.6005 114.20056 L 937.80062 116.79962 L 940.70056 122.10067 L 950.7009 124.29987 L 948.29979 131.40027 L 947.39913 133.39955 L 943.29962 133.5005 L 939.09916 130.29968 L 934.90068 136.00059 L 933.80009 140.40097 L 936.39915 145.70004 L 935.90032 148.20013 L 929.79956 152.89942 L 939.29909 159.99982 L 940.10078 162.60085 L 944.49919 162.60085 L 950.09914 166.99926 L 954.2996 166.79933 L 963.39927 163.69947 L 964.20096 159.00018 L 961.90081 158.20047 L 964.49987 158.40039 L 972.50093 156.10024 L 974.19932 158.89922 L 977.8 159.09915 L 986.00099 165.39984 L 992.69955 165.50079 L 994.59985 170.09913 L 1005 170.40001 L 1010.9999 174.40054 L 1012.9991 179.49968 L 1017.9993 180.60028 L 1021.0002 182.59955 L 1020.0006 187.10089 L 1031.0005 189.8009 L 1034.9991 188.99921 L 1038.9996 191.69923 L 1043.9998 191.09944 L 1039.9993 187.39979 L 1022.9995 175.80003 L 1026.0004 171.59957 L 1022.9995 169.20044 L 1025.0007 163.49954 L 1021.0002 161.79916 L 1020.0006 158.49937 L 1021.0002 153.4992 L 1017.9993 147.89925 L 1015.0004 148.90087 L 1009.0006 147.20049 L 1010.0002 141.69951 L 1001.9992 132.50086 L 999.99988 132.09903 L 997.09994 125.89929 L 990.3994 124.89966 L 986.29989 118.10014 L 979.19949 113.09997 L 977.60007 106.50038 L 980.19913 101.90007 L 988.69902 103.49949 L 990.50035 97.200778 L 988.9999 96.19916 L 990.19947 85.699993 L 976.29955 84.799329 L 972.09909 81.800415 z " fill="#68c868">
        <title>UE Lendava/Lendva</title>
    </path>
    <path id="UE-23"
          d="M 473.69941 349.60045 L 468.40034 353.89989 L 463.49914 354.49967 L 458.90081 362.3008 L 455.30013 362.3008 L 447.00017 367.39995 L 445.49972 371.89931 L 435.40041 373.79961 L 433.89996 376.8005 L 437.59961 379.30059 L 437.90049 382.49943 L 445.09986 381.40082 L 445.20082 385.30039 L 438.30035 388.89909 L 446.69928 398.80046 L 443.99927 402.39915 L 445.8006 412.19956 L 449.3993 414.09986 L 453.10093 413.1992 L 455.59903 409.6005 L 461.29994 407.10042 L 465.59937 411.50081 L 472.20094 414.29979 L 474.60007 413.50008 L 478.8995 415.60031 L 482.90003 414.29979 L 482.79908 410.29926 L 487.70028 409.89941 L 490.09941 416.59995 L 498.90018 429.79913 L 503.19961 430.49987 L 507.99985 429.5992 L 507.79993 425.20079 L 510.89979 423.19954 L 516.29982 424.80094 L 517.49938 426.80022 L 522.80043 427.29904 L 527.00089 430.49987 L 531.90011 429.90008 L 532.19901 426.20043 L 537.80094 422.99961 L 538.29977 419.80077 L 535.99961 414.09986 L 535.99961 411 L 545.29922 411.10095 L 546.30083 406.90049 L 554.40087 407.30035 L 555.40051 402.80099 L 559.80089 404.29945 L 556.40015 397.89979 L 556.40015 394.09919 L 552.90042 393.60036 L 549.49968 387.69953 L 549.4007 382.49943 L 540.59993 384.90054 L 532.80077 389.79975 L 526.30016 388.69916 L 523.49919 386.19908 L 525.39949 378.30095 L 523.89905 372.60004 L 527.8006 371.29952 L 528.89922 367.39995 L 526.80097 361.90095 L 527.00089 361.29919 L 524.19993 358.39925 L 515.50011 363.9992 L 513.3009 368.19966 L 507.6 370.49981 L 499.30003 369.50018 L 495.80031 370.8007 L 493.50016 369.1993 L 492.90037 364.39905 L 493.1003 354.09981 L 492.10066 352.79929 L 485.90093 353.19915 L 481.99937 351.99958 L 479.80017 353.60098 L 474.09926 353.89989 L 473.69941 349.60045 z " fill="#268826">
        <title>UE Litija</title>
    </path>
    <path id="UE-24"
          d="M 353.89923 317.40023 L 355.19975 321.20084 L 351.59907 323.40004 L 343.29911 324.99946 L 339.99931 323.40004 L 334.39936 324.19975 L 337.49923 332.40074 L 339.90034 334.59995 L 331.20052 339.29923 L 326.69918 339.20026 L 326.80013 342.80094 L 321.00026 343.00086 L 316.99972 345.9008 L 315.6992 349.4995 L 309.60042 353.19915 L 309.20057 358.59917 L 311.90058 360.89933 L 312.10051 364.10015 L 308.80071 368.10068 L 303.89952 365.40067 L 300.19987 365.8995 L 288.20025 362.70066 L 285.50024 363.39942 L 283.90082 367.30097 L 276.00071 367.99973 L 272.50099 371.80033 L 270.09988 377.60021 L 271.4004 384.30076 L 268.99929 387.40062 L 267.59979 393.00058 L 264.49993 395.59963 L 264.89978 401.7004 L 267.90067 401.19959 L 272.50099 403.20084 L 281.49971 402.39915 L 282.8992 405.00019 L 278.90065 408.80079 L 282.20045 412.79935 L 289.10092 413.89994 L 293.69925 416.9998 L 293.20042 411.90066 L 300.30082 411.79971 L 308.60079 407.50027 L 312.19948 407.90013 L 319.49981 405.99983 L 318.90003 402.10025 L 323.10048 398.89943 L 328.39956 398.80046 L 332.40009 401.50047 L 332.70097 405.90085 L 335.30003 409.89941 L 328.19963 409.49955 L 325.00079 410.69912 L 322.99953 415.29943 L 327.30094 425.40072 L 322.19982 429.39927 L 321.00026 432.90098 L 322.59968 436.4007 L 330.00096 445.10052 L 334.39936 447.40067 L 336.40062 446.10016 L 339.1996 449.70083 L 338.70078 460.00007 L 334.70024 461.99935 L 336.89945 470.09938 L 338.79975 473.19925 L 342.80028 478.70023 L 347.40059 477.79957 L 351.39915 472.59947 L 356.50027 473.19925 L 362.1992 468.19908 L 366.30068 475.80029 L 363.69964 479.80082 L 366.99944 486.80027 L 369.8004 491.29963 L 376.79985 499.39966 L 381.20023 501.19901 L 382.19987 507.2008 L 386.2004 510.59957 L 387.00011 508.60029 L 392.90095 509.4 L 396.00081 505.90028 L 399.79944 506.59904 L 402.69938 504.79969 L 407.69955 506.10021 L 414.20016 505.10057 L 419.09938 502.40056 L 422.89998 496.69965 L 426.30073 497.69929 L 426.59963 495.89994 L 420.59983 488.19976 L 412.69972 482.99966 L 409.09904 484.10025 L 408.89911 480.20068 L 411.1003 478.59928 L 410.70044 471.59983 L 408.0994 470.60019 L 406.69991 463.20089 L 398.39995 455.90057 L 396.6006 453.80034 L 394.19949 446.60096 L 395.89986 441.6008 L 394.50037 424.59903 L 392.69904 420.69945 L 399.50054 417.90047 L 402.40048 414.89957 L 405.59932 419.10003 L 410.10066 417.70054 L 419.09938 419.10003 L 420.09902 416.20009 L 424.29948 414.60067 L 421.79939 411.10095 L 425.49904 408.10006 L 427.99913 409.40058 L 431.5998 405.99983 L 436.09916 410.20029 L 436.49902 412.50044 L 443.39949 414.40075 L 445.8006 412.19956 L 443.99927 402.39915 L 446.69928 398.80046 L 438.30035 388.89909 L 445.20082 385.30039 L 445.09986 381.40082 L 437.90049 382.49943 L 437.59961 379.30059 L 433.89996 376.8005 L 435.40041 373.79961 L 445.49972 371.89931 L 447.00017 367.39995 L 441.60014 368.10068 L 438.9991 366.00045 L 437.99946 361.60007 L 434.20084 360.49948 L 429.29965 361.99992 L 425.79992 358.59917 L 420.70078 356.90078 L 415.99951 359.09998 L 414.70097 364.30008 L 410.30059 365.40067 L 404.19982 369.39922 L 395.50001 368.39958 L 395.39905 365.00082 L 387.79982 361.90095 L 385.00084 359.29991 L 381.60009 359.69977 L 372.99924 354.49967 L 371.7007 351.90061 L 369.60047 345.70088 L 371.99961 345.09911 L 373.50005 340.10092 L 378.70015 338.00069 L 377.50058 332.49972 L 372.90027 331.30015 L 372.79932 327.09969 L 365.40002 319.30054 L 353.89923 317.40023 z " fill="#268826">
        <title>UE Ljubljana</title>
    </path>
    <path id="UE-29"
          d="m 888.00084,127.52445 -5.90083,0.39985 -5.30105,6.60157 2.70001,4.29944 1.00162,9.69945 -4.00054,-0.099 -1.70037,3.69965 0.70074,6.99944 -6.90047,-1.59942 -5.09915,0.099 -2.80096,4.30141 -3.40075,10.40019 -0.89869,1.29854 3.69965,1.19957 6.30069,-0.79971 6.99945,4.80024 14.80058,-0.69876 2.79898,4.79827 6.70055,2.80096 1.79934,-5.2001 4.80025,-2.1992 2.89994,5.99981 5.00017,7.19937 4.80024,-4.0995 3.49972,4.29943 1.99928,-4.80024 3.20082,-2.99892 5.59995,-0.90066 -0.19993,-3.8006 3.40075,-1.06694 c 1.57728,-0.51238 3.11079,-1.18003 4.65574,-1.78748 l -0.2989,-4.60031 2.16951,-0.18211 6.13045,-0.51863 5.40003,1.1006 1.9003,-5.00017 -4.20046,0.19992 -5.59995,-4.40038 h -4.40039 l -0.65719,-2.94349 -9.49953,-7.1004 -3.40075,-2.60104 -8.80077,-8.79879 -2.50008,-2.80097 -9.49953,-4.49936 -6.09878,-3.89958 -5.50098,-0.70073 -4.89922,0.90066 z" fill="#68c868">
        <title>UE Ljutomer</title>
    </path>
    <path id="UE-30"
          d="m 300.5,466.1 -2.3,-8.4 -11.2,-12.5 -1.4,-3.7 -5,-3.6 -7.7,-1.1 -3.3,-4.1 5.5,-3.6 -3.1,-3.9 0.1,-4.6 7.3,-5.5 -7.4,-5.7 -4.7,-0.7 -3.2,1.5 0.8,-8.5 -0.4,-6.1 -1.3,0.3 -3.2,3.7 -0.2,3.2 -6.1,0.9 -5.4,7.3 1.5,0.8 -6.2,11.2 -3.9,-0.3 -1.9,3.3 0.8,3.4 3.1,3 0.1,3.5 -2.7,2 -0.4,4.2 -4.1,3.6 1.3,4 -0.3,5.4 6.4,6.6 1.1,8.2 1.8,4.2 6.9,-3.6 2.2,2.5 5.5,-1 5.2,-2.3 4.1,4 4,0.5 3.1,3.1 6,1.2 0.6,4 2.3,0.8 5.8,-1.6 2.7,2.9 7.1,-15.1 z" fill="#268826">
        <title>UE Logatec</title>
    </path>
    <path id="UE-34"
          d="m 624.2,606.2 -5,-5.5 -1.6,-3.4 5.2,-3.6 4.9,-1.1 -2,-3.3 1.1,-4.7 6.6,-1.3 4.8,0.9 3.9,-2.6 -0.3,-3.8 13,4.2 4.7,-4.8 -3.6,-2.7 -3.4,-9.2 -2.6,-1.5 -3.9,-9.5 -2.4,-0.7 0.3,-6.7 -6.1,-0.5 -1.2,4.2 -5.6,4.9 0.5,3.7 -3.7,0.5 0.2,-5.7 -6.7,2.7 -0.2,-6.1 -2.1,-2.5 -3.8,1.7 -0.7,-4.6 -2.2,-4.2 -7.1,1.3 -4.8,3.7 -2.8,3.7 2.9,1 1.8,7.4 6.6,4.2 2.8,4 -1.5,3.1 7,6.7 -2.8,3 -6.6,2 -1.4,4.8 -4.8,7.4 -5.6,-0.3 -1.4,4.6 8.1,3.3 4.1,5.2 4,2.5 4.1,-1.6 2.6,5.7 5.6,-4.4 z" fill="#90ee90">
        <title>UE Metlika</title>
    </path>
    <path id="UE-35"
          d="M 421.99932 201.69956 L 416.90018 204.5995 L 410.79941 205.30024 L 407.89948 206.89966 L 402.69938 206.60076 L 393.3008 211.49998 L 392.00028 217.69971 L 393.99956 218.69935 L 393.5997 227.59909 L 390.60079 233.40095 L 390.60079 236.19994 L 386.29938 238.39914 L 386.29938 240.6993 L 393.70066 246.69911 L 396.20074 244.40093 L 402.40048 245.40057 L 409.9997 242.3007 L 409.9997 258.19989 L 416.59929 265.90007 L 421.79939 267.69942 L 422.79903 275.50056 L 421.70042 280.19985 L 424.4994 281.19948 L 431.5998 279.69904 L 431.79973 283.00081 L 428.69986 288.09995 L 431.5998 292.39939 L 439.89977 292.50034 L 448.39966 295.80014 L 459.70052 295.00043 L 464.1009 293.49998 L 480.20002 295.80014 L 482.59915 298.39919 L 489.80051 301.79994 L 494.80067 295.20035 L 493.1003 290.40011 L 501.60019 292.30041 L 501.49924 289.09959 L 506.89926 286.10068 L 510.10008 282.69993 L 516.40077 282.39905 L 518.59998 276.7991 L 517.69931 272.89952 L 520.79918 268.49913 L 524.10095 266.80074 L 523.49919 263.00013 L 524.90066 259.90027 L 530.30069 256.60047 L 526.59906 248.59941 L 526.70001 237.30053 L 526.1992 229.69932 L 517.40041 230.00021 L 514.9993 231.1008 L 507.90088 223.80047 L 502.90071 224.49923 L 497.59966 230.49903 L 495.49943 229.69932 L 493.70008 225.10099 L 495.09958 218.8003 L 489.09977 216.10029 L 485.40012 215.79941 L 477.50001 217.20088 L 474.29919 214.39991 L 466.19915 215.30058 L 462.69943 214.7008 L 458.20007 211.6999 L 453.99961 210.50034 L 450.89974 214.39991 L 447.29907 216.39919 L 444.59905 209.59967 L 440.6005 204.3006 L 436.99983 202.09942 L 426.79956 202.89913 L 421.99932 201.69956 z " fill="#77d677">
        <title>UE Mozirje</title>
    </path>
    <path id="UE-36"
          d="M 928.09919 0.00033846768 L 922.40026 3.8999162 L 918.39973 3.500061 L 911.89911 5.6992645 L 909.30006 9.2999406 L 906.09923 7.9004475 L 903.10032 10.899361 L 896.10088 9.6997958 L 888.20077 3.8009422 L 883.4995 5.8991921 L 878.0005 11.40017 L 875.50042 11.200242 L 871.29996 18.100714 L 865.70001 17.599905 L 863.19992 19.399253 L 860.19903 17.399977 L 854.89996 21.800364 L 851.09935 19.599181 L 847.70058 23.399784 L 848.50029 27.200388 L 851.80009 31.299893 L 849.89979 34.799616 L 850.4006 39.900739 L 848.7992 48.299677 L 848.99912 56.799569 L 847.3997 59.200679 L 850.09971 68.900137 L 855.20084 76.200463 L 861.80043 77.999811 L 861.80043 83.500789 L 865.1992 88.099124 L 866.20081 90.300307 L 864.70037 104.60008 L 863.99963 106.90024 L 877.00086 116.59969 L 884.99995 123.90002 L 887.69996 127.50069 L 889.09945 130.49961 L 894.00065 129.60092 L 899.49964 130.29968 L 905.60041 134.19926 L 915.09994 138.7006 L 917.60002 141.49959 L 926.40079 150.30036 L 929.79956 152.89942 L 935.90032 148.20013 L 936.39915 145.70004 L 933.80009 140.40097 L 934.90068 136.00059 L 939.09916 130.29968 L 943.29962 133.5005 L 947.39913 133.39955 L 948.29979 131.40027 L 950.7009 124.29987 L 940.70056 122.10067 L 937.80062 116.79962 L 943.6005 114.20056 L 948.00089 108.80054 L 952.70018 110.70084 L 950.9998 106.39943 L 954.0007 105.10089 L 955.20026 97.200778 L 957.99925 91.899728 L 961.50095 89.199715 L 966.99995 92.099655 L 968.59937 86.800584 L 972.09909 81.800415 L 975.69977 78.50062 L 972.99976 73.500451 L 970.09982 75.899582 L 967.39981 75.000897 L 965.89936 68.900137 L 960.49933 60.899074 L 955.80005 58.100088 L 959.40072 46.79923 L 953.69982 46.79923 L 954.0007 37.499628 L 962.79949 34.500714 L 965.40053 17.099096 L 962.99942 14.399084 L 959.40072 15.200774 L 955.89902 9.6997958 L 952.59923 9.2009666 L 949.00053 4.8005801 L 946.99927 1.9006403 L 938.89924 2.3994695 L 928.09919 0.00033846768 z " fill="#68c868">
        <title>UE Murska Sobota</title>
    </path>
    <path id="UE-37"
          d="m 96.800268,333.0995 -3.200821,0.30088 -3.299795,4.20046 0.599783,2.79898 -3.598697,8.29997 -3.200821,1.30052 -3.499722,5.20009 -7.300327,5.29908 -1.500446,3.69965 -4.899216,3.10184 -4.901195,4.99819 -5.498999,2.50009 -5.099143,4.40038 -1.201545,2.50009 -5.000169,2.60104 -5.999807,1.59942 v 4.49936 l 4.50134,3.20082 -0.799711,4.0995 -4.200458,8.4999 -5.00017,1.70037 -0.999638,2.50008 8.199011,11.99962 4.000531,0.19993 4.099506,3.40074 0.500808,2.59906 4.499361,0.99964 1.999276,-2.39913 6.401642,0.70074 3.198841,-6.8015 4.200459,-3.19884 9.899385,2.50008 4.099505,-2.10023 3.000894,2.99892 -3.099868,15.70124 1.199566,5.09914 -6.199735,10.50115 -2.10023,5.59995 -4.800241,4.09951 -3.299795,6.59959 0.199927,4.40039 -4.099505,12.99925 4.600314,3.8006 2.798986,7.3993 14.701606,-0.19993 4.598335,1.90031 8.299964,-0.19993 2.300156,-8.69982 3.40075,-0.10095 4.89922,-4.29944 1.40147,-5.09914 -1.10059,-3.8006 9.0007,2.60103 5.9998,3.5987 3.09987,4.20046 5.89886,3.40075 6.10076,-0.70074 3.60067,-4.20046 6.69857,4.20046 -0.19993,-5.50098 -3.39877,0.30088 -7.30033,-4.60031 -3.49972,-6.19973 1.59942,-1.50045 -6.79952,-4.80024 -7.70018,-2.39913 -0.59978,-4.69929 -3.00089,-3.30178 3.00089,-3.39877 5.499,-1.30051 7.50025,-8.39894 4.09951,-8.69982 -1.99928,-11.30086 9.09968,2.50009 11.50078,-3.60068 -6.60157,-8.89975 3.70163,-1.39949 4.29943,-2.00126 -5.90083,-4.89921 -5.99981,-2.99892 -2.89994,-6.50061 -5.00017,-6.90047 0.19993,-10.00034 3.49973,-2.50009 -4.39841,-4.60031 1.29854,-3.99855 -1.99928,-5.30105 -4.40038,0.70073 -3.09987,-1.19956 -3.09987,4.49936 -2.30016,-0.50081 -2.30015,-3.99855 -4.69929,-0.70074 -9.69946,-7.90011 -3.20082,0.39986 -3.29979,-5.499 -2.10023,-7.80113 z" fill="#006400">
        <title>UE Nova Gorica</title>
    </path>
    <path id="UE-38"
          d="M 626.49951 431.4995 L 623.30067 434.30047 L 618.3005 431.89936 L 614.40092 440.19932 L 610.20046 435.80092 L 607.30052 437.80019 L 604.0997 443.8 L 600.70093 446.60096 L 601.99947 447.6006 L 596.59945 452.49982 L 599.60034 460.09905 L 596.50047 464.0006 L 596.50047 467.50033 L 592.30002 470.69917 L 585.19962 475.20051 L 578.29915 472.39954 L 572.09941 471.70078 L 566.00063 469.09975 L 558.59935 462.70008 L 558.79928 460.99971 L 553.79911 463.49979 L 553.19933 468.80085 L 545.20024 468.30004 L 544.60046 472.99932 L 541.59957 472.59947 L 536.5994 475.89926 L 537.30013 486.29946 L 533.80041 488.50064 L 526.70001 483.59945 L 521.19903 488.50064 L 513.79973 486.60034 L 511.6995 482.10098 L 512.09936 479.10009 L 508.79956 473.30021 L 506.00058 473.50013 L 501.00041 477.59964 L 498.39937 475.29948 L 491.90073 473.79903 L 487.30042 473.89999 L 489.40065 476.00022 L 488.80087 480.49958 L 480.59988 479.80082 L 476.7003 480.4006 L 479.00046 489.70021 L 481.50054 490.29999 L 480.99973 501.49989 L 481.79944 505.50042 L 479.40031 508.49934 L 473.89933 508.60029 L 468.69924 505.90028 L 464.19988 507.29977 L 462.4995 511.90009 L 462.89936 517.50004 L 465.59937 524.80037 L 471.19932 526.90059 L 476.59935 526.99957 L 482.1993 525.60008 L 493.19927 532.99938 L 496.49907 528.60097 L 496.99988 525.09927 L 499.80084 519.8002 L 505.29984 517.80092 L 509.59928 520.29903 L 520.79918 522.10035 L 522.00072 529.29973 L 519.39969 536.99991 L 516.40077 538.30043 L 515.80099 542.59986 L 516.29982 550.60092 L 521.29999 553.70079 L 523.89905 558.49905 L 531.59923 563.09937 L 531.30033 572.60087 L 533.40056 580.50098 L 536.39947 582.99909 L 540.20007 577.39914 L 536.90028 574.00037 L 538.69963 570.30072 L 544.2006 567.40078 L 545.90098 559.19979 L 548.59901 556.6997 L 552.90042 556.20087 L 560.29972 558.40008 L 564.50018 558.6 L 568.50071 556.29985 L 577.60039 555.50014 L 583.29932 560.30038 L 585.5005 557.49941 L 593.60053 554.19962 L 597.59909 549.70026 L 600.40005 546.00061 L 605.20029 542.30096 L 612.30069 541.00044 L 617.79969 534.69975 L 623.30067 530.69922 L 624.79914 527.7003 L 630.50004 525.20022 L 635.39926 523.8997 L 641.69995 519.20041 L 651.19948 516.19952 L 657.30024 510.30067 L 659.00061 509.90081 L 658.00097 504.70071 L 651.30043 500.50026 L 649.29917 494.99928 L 651.79926 488.50064 L 646.59916 482.10098 L 656.50053 477.10081 L 651.99919 476.09919 L 650.19984 471.79976 L 650.70065 467.19944 L 646.10033 464.49943 L 640.90024 465.99988 L 636.09999 463.69972 L 639.50074 459.69919 L 638.69905 446.39906 L 641.69995 442.29955 L 635.79911 438.70086 L 634.9994 432.09929 L 632.00049 433.39981 L 626.49951 431.4995 z " fill="#90ee90">
        <title>UE Novo mesto</title>
    </path>
    <path id="UE-39"
          d="M 856.09952 173.60083 L 857.49902 179.49968 L 856.6993 182.59955 L 863.19992 190.0998 L 863.10095 197.90094 L 862.20028 203.79979 L 857.7999 209.99953 L 859.39932 212.09976 L 866.49972 212.00078 L 866.40074 218.89928 L 867.89921 223.29966 L 871.20098 228.49976 L 881.19934 230.79992 L 896.59971 223.40062 L 901.7998 223.60054 L 908.79925 229.80028 L 912.99971 231.59963 L 913.79942 236.00001 L 920.30003 232.99912 L 928.6 232.10043 L 929.99949 235.60016 L 932.89943 234.89942 L 938.49938 236.70075 L 940.79954 235.69913 L 950.40002 235.60016 L 952.30032 226.70041 L 949.49936 222.80083 L 944.29926 218.60037 L 940.30071 210.30041 L 938.00055 203.39994 L 936.70003 192.90077 L 934.10097 187.10089 L 930.99913 182.99941 L 925.39918 183.90007 L 922.20033 186.90096 L 920.19908 191.69923 L 916.69936 187.39979 L 911.89911 191.4993 L 906.90092 184.29993 L 904.00098 178.30012 L 899.20074 180.49932 L 897.39942 185.69942 L 890.70085 182.90043 L 887.89989 178.10019 L 873.09931 178.80093 L 866.09986 174.00069 L 859.79917 174.8004 L 856.09952 173.60083 z " fill="#389a38">
        <title>UE Ormož</title>
    </path>
    <path id="UE-40"
          d="m 78,627.4 -4.5,1.6 1.7,2.9 -3.2,1.8 -5.6,0.5 -2.5,-1.7 -2,3.3 1.8,3.5 6.6,0.4 1,4.2 -3.5,2.9 2.6,4.3 -2.4,6 8.7,6.1 7.8,2 8.3,3.1 2.9,2.9 4.5,-2.5 0.5,-6 8.7,-10.3 -0.4,-2.4 -11.5,-1.6 -1.2,8.7 -5.1,1.5 -0.7,-3 -7.3,-7.2 -0.6,-7 -3.4,-5.9 0.5,-4.2 z" fill="#278927">
        <title>UE Piran/Pirano</title>
    </path>
    <path id="UE-41"
          d="M 264.69985 469.69953 L 259.49976 471.99969 L 254.00076 472.99932 L 251.79958 470.49924 L 244.8991 474.09992 L 238.80032 477.59964 L 236.10031 483.59945 L 218.9006 489.10042 L 225.59916 500.59923 L 221.00083 506.89992 L 220.19914 514.80003 L 216.60044 524.60044 L 218.79965 528.8009 L 227.60042 530.49929 L 233.29935 539.49999 L 235.10067 545.60075 L 226.60078 549.39938 L 226.69976 553.39991 L 224.3996 560.30038 L 228.2002 561.40097 L 228.69903 564.19996 L 226.69976 572.49992 L 231.10014 577.39914 L 229.79962 585.00034 L 234.39994 587.90028 L 235.99936 589.89956 L 239.60003 588.69999 L 241.50034 583.80078 L 247.79904 583.60085 L 256.19996 589.29978 L 273.99946 587.10057 L 277.99999 584.29961 L 280.59905 579.89922 L 286.80076 577.59906 L 292.49969 574.29927 L 313.19912 570.30072 L 308.89969 563.09937 L 316.20001 559.9995 L 321.09923 565.7004 L 325.60057 572.8008 L 326.00042 578.80061 L 331.49942 578.0009 L 333.79958 579.49937 L 342.09954 578.20083 L 344.19977 571.1994 L 342.80028 569.40005 L 336.09974 567.89961 L 332.49906 563.8001 L 326.00042 553.09903 L 328.90036 548.70062 L 323.59931 544.50016 L 315.29935 535.49946 L 310.09925 533.30026 L 308.69976 526.70067 L 298.60045 526.10088 L 290.30048 516.90026 L 291.3991 515.90062 L 284.59958 507.4997 L 289.30085 503.99998 L 288.99996 500.3993 L 291.3991 497.09951 L 293.49932 490.8008 L 293.2994 484.59908 L 290.59938 481.69914 L 284.79951 483.30054 L 282.49935 482.50083 L 281.89957 478.5003 L 275.89976 477.30074 L 272.79989 474.20087 L 268.79936 473.70006 L 264.69985 469.69953 z " fill="#278927">
        <title>UE Postojna</title>
    </path>
    <path id="UE-42"
          d="M 814.39977 153.4992 L 814.10087 156.10024 L 809.90041 160.79953 L 807.80018 161.10041 L 806.80055 164.80006 L 802.69906 172.79914 L 802.69906 174.89937 L 798.30065 176.59974 L 792.90063 180.8002 L 791.20025 179.89954 L 790.8004 183.99904 L 787.59958 184.29993 L 780.20028 190.20076 L 779.40057 193.1007 L 784.49971 192.70084 L 789.60083 197.69903 L 792.50077 198.70065 L 786.50097 201.09978 L 784.89957 205.90002 L 785.40038 210.30041 L 780.69911 207.20054 L 776.90048 212.40064 L 766.90015 209.19982 L 763.89925 211.80086 L 760.30056 214.90072 L 748.7008 221.39936 L 743.5007 224.09937 L 745.89983 228.20086 L 749.99934 230.09918 L 747.69918 235.00037 L 743.59967 237.59943 L 746.20071 239.89959 L 744.10048 244.10005 L 744.99917 250.29978 L 749.30058 251.8992 L 755.59929 249.10022 L 759.10099 252.40001 L 758.20033 259.30048 L 758.49923 266.20096 L 756.80083 272.80055 L 751.20088 281.99919 L 746.40064 284.29935 L 751.60074 287.19929 L 765.30072 287.59915 L 767.80081 290.40011 L 772.10024 288.49981 L 774.29945 293.39903 L 777.39931 294.00079 L 784.60067 291.70063 L 794.59902 290.60004 L 801.89935 288.40084 L 808.00011 287.7001 L 808.99975 284.00045 L 824.00026 277.40086 L 826.10049 279.20021 L 840.89909 273.80018 L 843.19924 269.19987 L 844.89962 266.80074 L 853.10061 269.1009 L 857.29909 268.20023 L 859.50027 265.79912 L 858.99946 262.60028 L 863.7997 255.60083 L 869.70054 256.00069 L 872.8004 252.70089 L 875.50042 253.59958 L 877.49969 249.89993 L 876.1002 242.50063 L 872.20062 236.70075 L 868.7009 233.89978 L 870.59922 230.20013 L 871.20098 228.49976 L 867.89921 223.29966 L 866.40074 218.89928 L 866.49972 212.00078 L 859.39932 212.09976 L 857.7999 209.99953 L 862.20028 203.79979 L 863.10095 197.90094 L 863.19992 190.0998 L 856.6993 182.59955 L 857.49902 179.49968 L 856.09952 173.60083 L 857.00019 172.30031 L 853.10061 169.29942 L 853.10061 167.10021 L 848.70022 161.70019 L 846.20014 156.50009 L 842.90034 160.39967 L 839.09974 160.5996 L 834.89928 163.80042 L 832.70008 159.00018 L 829.69918 157.69966 L 826.79924 159.79989 L 826.59932 161.90012 L 814.39977 153.4992 z " fill="#389a38">
        <title>UE Ptuj</title>
    </path>
    <path id="UE-43"
          d="M 563.50055 102.8997 L 559.69994 105.79964 L 556.29919 106.50038 L 554.40087 109.80018 L 557.10088 111.30062 L 558.99921 122.5995 L 562.90076 128.10048 L 569.1005 133.59948 L 563.50055 133.99933 L 561.49929 138.90053 L 562.79981 147.00056 L 561.40032 147.80027 L 561.40032 148.99984 L 569.59933 154.90067 L 572.09941 155.70038 L 572.69919 160.5996 L 571.09977 164.00035 L 576.69973 167.89992 L 576.80068 168.40073 L 582.40063 168.09985 L 584.99969 170.79986 L 588.80029 171.99943 L 591.10045 174.8004 L 596.9993 177.70034 L 599.60034 182.1997 L 603.60087 184.49985 L 610.29944 180.09947 L 619.69999 182.59955 L 628.70069 182.79948 L 629.30048 178.59902 L 633.20005 172.90009 L 638.60008 164.60013 L 639.9006 152.60052 L 647.80071 148.59998 L 648.00063 145.39916 L 645.79945 140.40097 L 649.00027 138.19979 L 657.79907 139.70024 L 665.00042 148.09918 L 670.40044 146.29983 L 670.09956 141.09973 L 671.60001 139.50031 L 668.70007 138.50067 L 667.90036 132.30094 L 671.29913 128.30041 L 671.20015 125.20054 L 668.50014 122.19964 L 668.30021 116.19984 L 666.39991 113.49983 L 661.30077 109.80018 L 658.09995 105.79964 L 652.10014 106.79928 L 639.39979 107.10016 L 636.6008 105.99957 L 631.69961 108.40068 L 628.70069 106.50038 L 622.90081 106.50038 L 617.59976 110.50091 L 612.90048 110.0001 L 604.20066 112.50019 L 591.70023 109.49929 L 586.79904 104.60008 L 581.69989 105.50074 L 579.59966 104.09927 L 574.79942 102.8997 L 568.10086 105.59972 L 563.50055 102.8997 z " fill="#77d677">
        <title>UE Radlje ob Dravi</title>
    </path>
    <path id="UE-44"
          d="m 198.59904,206.40083 -5.499,0.79971 v 4.29944 l -4.20046,-0.10096 -5.59995,1.70038 -4.49936,9.5015 -6.19973,1.19957 -4.60032,3.79862 -4.0995,1.70038 -12.0016,7.1004 -2.1992,-0.70074 -3.09987,6.60157 -12.39947,4.09951 -4.20046,4.0995 -6.70054,2.20118 -4.40039,4.29944 1.20155,10.20026 -6.70054,6.8985 2.39913,2.00125 1.00161,5.09914 4.39841,4.9012 1.80133,4.39841 3.79862,0.10095 13.20116,9.80041 2.10023,0.99964 h 6.79952 l 7.1004,4.29943 6.49864,1.70038 h 5.00016 l 3.80061,-2.10023 3.20082,0.59978 11.09895,-1.19957 3.8006,-2.59906 2.30016,1.79935 5.09914,-1.79935 3.80061,0.099 0.99964,-2.70001 10.99997,-4.40039 8.49989,4.20046 7.70019,3.00089 4.0995,-0.50081 1.40147,-18.99906 3.49973,-2.30015 7.29834,0.99963 6.40164,2.99892 4.49936,-2.10023 4.00054,-1.09861 6.2987,2.70001 3.80061,-1.50045 9.89938,4.40039 3.09987,-1.30052 6.10076,0.70074 2.19921,-0.99964 -1.89833,-1.6014 -2.30015,-8.19901 1.79934,-13.89992 -5.40002,-5.59995 -3.00089,-7.40128 3.20082,-6.29871 -0.59979,-12.20152 1.1006,-6.09878 -2.30016,-3.09987 2.39913,-2.89994 -2.59906,-2.70001 -3.20082,-0.19993 -3.8006,0.19993 -4.39841,2.50008 -2.40111,5.59996 -3.19884,4.29943 -0.39986,6.19973 -6.60157,1.70038 -5.29907,-1.59942 -5.7009,6.09878 -5.79988,-10.4002 2.20118,-5.00017 -2.40111,-1.89832 -7.59923,3.39877 -8.00106,-8.19901 -7.79916,-2.89994 z" fill="#62c262">
        <title>UE Radovljica</title>
    </path>
    >
    <path id="UE-45"
          d="M 490.09941 125.60039 L 484.40048 128.99916 L 483.60077 134.19926 L 476.79927 142.00039 L 473.89933 148.70094 L 474.99993 150.70021 L 471.59918 155.79936 L 470.10071 158.00054 L 469.90078 166.59941 L 468.40034 167.89992 L 468.60026 173.89973 L 464.59973 174.69944 L 457.60029 178.59902 L 455.1002 176.19989 L 449.59922 176.19989 L 445.8006 179.49968 L 442.30088 177.10055 L 440.09969 181.50094 L 435.00055 178.39909 L 432.9993 187.50075 L 429.29965 190.40069 L 430.89907 193.90041 L 422.39917 196.89932 L 421.99932 201.69956 L 426.79956 202.89913 L 436.99983 202.09942 L 440.6005 204.3006 L 444.59905 209.59967 L 447.29907 216.39919 L 450.89974 214.39991 L 453.99961 210.50034 L 458.20007 211.6999 L 462.69943 214.7008 L 466.19915 215.30058 L 474.29919 214.39991 L 477.50001 217.20088 L 485.40012 215.79941 L 489.09977 216.10029 L 493.59913 216.10029 L 498.90018 210.10048 L 506.89926 210.19946 L 509.90016 206.2009 L 515.19923 204.79943 L 512.8001 199.30043 L 513.99966 193.50055 L 516.00092 192.20003 L 516.40077 185.49949 L 523.40022 183.10036 L 525.50045 178.59902 L 528.29943 178.80093 L 530.19973 171.90046 L 530.39966 165.70072 L 528.69929 163.49954 L 528.69929 163.29961 L 530.70054 157.2998 L 532.40092 153.69913 L 531.3993 148.0002 L 528.80024 148.70094 L 524.70074 144.79938 L 517.29946 140.8998 L 515.39915 136.29949 L 511.49958 133.70043 L 509.39935 135.4008 L 502.19997 127.39974 L 501.20034 130.09975 L 495.20053 126.60003 L 490.09941 125.60039 z " fill="#77d677">
        <title>UE Ravne na Koroškem</title>
    </path>
    <path id="UE-46"
          d="M 422.89998 496.69965 L 419.09938 502.40056 L 414.20016 505.10057 L 407.69955 506.10021 L 402.69938 504.79969 L 399.79944 506.59904 L 396.00081 505.90028 L 392.90095 509.4 L 387.00011 508.60029 L 386.2004 510.59957 L 380.09964 513.40053 L 382.90061 516.5004 L 387.5999 516.70033 L 388.19968 523.40087 L 386.49931 528.60097 L 390.69976 535.60041 L 384.89988 537.50072 L 380.80038 532.79945 L 377.39963 534.8007 L 378.99905 541.49927 L 382.59973 549.99916 L 384.60098 556.6997 L 385.00084 564.90069 L 387.90078 565.7004 L 392.00028 569.40005 L 397.20038 567.69968 L 400.30025 573.00073 L 398.20002 583.60085 L 396.40067 586.70072 L 402.00062 591.79986 L 406.39903 593.19935 L 407.8005 597.39981 L 410.59949 597.70069 L 414.40009 603.39962 L 423.09991 604.59919 L 426.59963 608.19986 L 429.20067 603.79948 L 437.50064 599.19916 L 434.49974 588.69999 L 429.09972 583.10004 L 438.79917 582.19938 L 440.00072 576.59943 L 445.69965 581.5996 L 453.1999 582.70019 L 455.50006 581.10077 L 454.70035 576.59943 L 458.29904 570.30072 L 456.29977 568.00056 L 453.70071 559.9995 L 464.79966 547.70098 L 464.90061 544.70009 L 468.80019 539.30006 L 459.99942 532.50055 L 451.80041 525.29919 L 445.60067 517.89989 L 443.99927 513.60046 L 440.80043 511.90009 L 432.90032 505.50042 L 431.99966 503.00034 L 426.30073 497.69929 L 422.89998 496.69965 z " fill="#268826">
        <title>UE Ribnica</title>
    </path>
    <path id="UE-47"
          d="m 575.7,423.5 4.7,9.9 6.8,5.2 1,2.5 4.7,3.6 7.8,1.9 3.4,-2.8 3.2,-6 2.9,-2 4.2,4.4 3.9,-8.3 5,2.4 3.2,-2.8 5.5,1.9 3,-1.3 0.8,6.6 5.9,3.6 0.2,-4 3.8,-1.5 3.8,-7.9 v -5.2 l 12.6,-6 2.2,-7.2 -0.9,-4.7 -3.4,-3.1 -1.6,-12.5 v -6.4 l 1.8,-1.5 -4.8,-0.8 -4.2,-2.8 -3.2,2 -4,-2.2 -3.1,0.8 -11.5,-1.2 -4.9,3.3 -5.1,-0.3 -0.1,3.8 -3,0.3 1,-5.2 -2.7,-3.2 -0.3,-4 -5.9,4.2 -6,-0.4 -4.1,-4.1 -3.3,2.5 -4.3,-1.4 -3.7,3 4.5,3 2.7,6.1 -0.5,4.8 2.3,1.7 4.5,-0.6 3.9,4.4 -6.2,4.3 -3.9,0.7 -2.3,-3.9 -13.6,-2.7 -6.8,-2.7 -7.8,2.6 -7.4,-0.2 v 3.8 l 3.4,6.4 2.2,4.8 7.3,4.2 2.2,4.2 3.5,-0.2 4.4,-3.2 1.5,2.9 z" fill="#90ee90">
        <title>UE Sevnica</title>
    </path>
    <path id="UE-48"
          d="M 110.50026 476.99986 L 111.60085 480.80046 L 110.19938 485.8996 L 105.30016 490.19904 L 101.89941 490.29999 L 99.599254 498.99981 L 91.29929 499.19974 L 86.700955 497.29943 L 71.999349 497.49936 L 71.599494 502.80041 L 81.599833 507.69963 L 91.499218 506.39911 L 95.400775 506.69999 L 108.00017 518.20078 L 114.99962 522.10035 L 120.19971 527.39942 L 125.59974 526.90059 L 126.59938 529.49965 L 132.70014 530.60024 L 137.79928 534.29989 L 141.39996 542.30096 L 146.4991 546.40046 L 148.79926 549.79923 L 148.79926 559.10081 L 152.30096 561.8998 L 156.80032 569.20013 L 163.50086 575.30089 L 169.79957 579.49937 L 176.50012 584.00071 L 172.60054 587.99926 L 162.80013 594.49987 L 163.30094 599.10019 L 167.40044 613.09908 L 170.59928 616.69975 L 174.00003 616.49983 L 178.00056 623.80015 L 190.50098 620.90021 L 196.39984 631.90019 L 201.79986 636.70043 L 203.39928 636.59948 L 206.40018 636.70043 L 211.29939 640.70096 L 216.80037 646.79974 L 218.79965 646.59982 L 226.60078 653.10043 L 232.49964 654.40095 L 241.19945 654.69985 L 245.39991 650.29947 L 242.80085 642.90017 L 238.6004 641.79957 L 236.90002 638.20088 L 233.4003 637.50014 L 236.50017 628.40047 L 235.99936 623.80015 L 239.49908 620.30043 L 239.60003 615.70012 L 233.4003 612.80018 L 232.69956 608.79965 L 234.20001 602.59991 L 237.80069 600.20078 L 238.20054 595.69944 L 234.39994 592.19972 L 234.39994 587.90028 L 229.79962 585.00034 L 231.10014 577.39914 L 226.69976 572.49992 L 228.69903 564.19996 L 228.2002 561.40097 L 224.3996 560.30038 L 226.69976 553.39991 L 226.60078 549.39938 L 235.10067 545.60075 L 233.29935 539.49999 L 227.60042 530.49929 L 218.79965 528.8009 L 216.60044 524.60044 L 208.90026 519.20041 L 201.50096 522.30028 L 202.70053 520.79983 L 197.90029 516.39945 L 193.40092 515.39981 L 188.69966 511.50023 L 186.79936 511.99906 L 180.79955 509.50096 L 178.80027 506.19918 L 172.89944 501.29997 L 169.90053 498.59995 L 167.69934 493.10095 L 156.49944 494.59942 L 153.10067 493.50081 L 150.89949 490.10006 L 144.20092 485.8996 L 140.60025 490.10006 L 134.49949 490.8008 L 128.60063 487.40005 L 125.50076 483.19959 L 119.50096 479.60089 L 110.50026 476.99986 z " fill="#278927">
        <title>UE Sezana</title>
    </path>
    <path id="UE-49"
          d="M 561.40032 147.80027 L 558.30045 147.89925 L 551.5999 150.99911 L 549.89953 150.30036 L 545.00031 153.40023 L 541.39964 160.10077 L 537.80094 160.10077 L 536.3005 163.69947 L 530.70054 157.2998 L 528.69929 163.29961 L 528.69929 163.49954 L 530.39966 165.70072 L 530.19973 171.90046 L 528.29943 178.80093 L 525.50045 178.59902 L 523.40022 183.10036 L 516.40077 185.49949 L 516.00092 192.20003 L 513.99966 193.50055 L 512.8001 199.30043 L 519.79954 201.09978 L 529.99981 207.49944 L 533.40056 206.49981 L 541.30066 208.70099 L 546.19988 208.99989 L 553.70013 212.20071 L 556.49912 214.59984 L 557.10088 209.19982 L 564.99901 212.89947 L 567.40012 216.59912 L 567.79998 219.00023 L 575.59913 224.2993 L 581.39901 220.59965 L 585.59947 220.50068 L 585.59947 224.20033 L 583.49924 229.89925 L 588.49941 231.79955 L 601.59962 230.20013 L 610.40039 218.69935 L 610.60032 212.49961 L 615.0007 204.70046 L 619.10021 204.50053 L 622.99979 202.4003 L 631.69961 202.20037 L 634.19969 199.39941 L 630.59902 196.00064 L 628.39981 190.80054 L 629.59938 187.99958 L 628.70069 182.79948 L 619.69999 182.59955 L 610.29944 180.09947 L 603.60087 184.49985 L 599.60034 182.1997 L 596.9993 177.70034 L 591.10045 174.8004 L 588.80029 171.99943 L 584.99969 170.79986 L 582.40063 168.09985 L 576.80068 168.40073 L 576.69973 167.89992 L 571.09977 164.00035 L 572.69919 160.5996 L 572.09941 155.70038 L 569.59933 154.90067 L 561.40032 148.99984 L 561.40032 147.80027 z " fill="#77d677">
        <title>UE Slovenj Gradec</title>
    </path>
    <path id="UE-50"
          d="M 689.3995 179.40071 L 681.69932 181.90079 L 674.80083 186.49913 L 665.00042 189.30009 L 659.69937 189.39907 L 654.89913 189.60098 L 649.29917 194.99902 L 646.39923 193.1007 L 645.9004 189.10017 L 635.99904 190.00083 L 636.20095 194.79909 L 639.10089 197.60006 L 638.60008 201.80052 L 642.20075 203.70082 L 647.09997 203.20001 L 650.50072 208.00025 L 653.80051 210.30041 L 657.30024 207.49944 L 658.69973 210.79924 L 663.80085 214.00006 L 659.20054 226.30056 L 663.39902 229.00057 L 660.49908 236.90068 L 664.40063 239.60069 L 667.5005 241.79989 L 672.9995 242.70056 L 672.30074 245.20064 L 680.29983 246.89904 L 682.70094 245.29961 L 685.69985 247.30087 L 688.79972 244.4999 L 690.70002 249.59905 L 693.70091 250.49971 L 699.7997 249.39912 L 702.80059 250.80059 L 703.00052 256.8004 L 704.79986 263.39999 L 704.59994 268.80001 L 706.99907 271.69995 L 704.99979 277.20093 L 707.4009 279.79999 L 704.59994 282.5 L 709.29922 285.20001 L 712.30012 278.49947 L 718.29993 278.89933 L 722.59936 277.60079 L 724.60061 280.19985 L 731.00028 278.29954 L 734.39905 281.39941 L 736.09942 284.09942 L 746.40064 284.29935 L 751.20088 281.99919 L 756.80083 272.80055 L 758.49923 266.20096 L 758.20033 259.30048 L 759.10099 252.40001 L 755.59929 249.10022 L 749.30058 251.8992 L 744.99917 250.29978 L 744.10048 244.10005 L 746.20071 239.89959 L 743.59967 237.59943 L 747.69918 235.00037 L 749.99934 230.09918 L 745.89983 228.20086 L 743.5007 224.09937 L 748.7008 221.39936 L 743.39975 217.60074 L 742.00025 213.6002 L 731.60006 210.99917 L 730.49947 207.69937 L 717.59919 202.09942 L 711.90026 195.89968 L 705.70053 194.30026 L 707.29995 187.79965 L 703.49935 186.09927 L 702.00088 179.69961 L 699.30087 180.8002 L 689.3995 179.40071 z " fill="#389a38">
        <title>UE Slovenska Bistrica</title>
    </path>
    <path id="UE-51"
          d="M 629.59938 187.99958 L 628.39981 190.80054 L 630.59902 196.00064 L 634.19969 199.39941 L 631.69961 202.20037 L 622.99979 202.4003 L 619.10021 204.50053 L 615.0007 204.70046 L 610.60032 212.49961 L 610.40039 218.69935 L 601.59962 230.20013 L 606.30089 232.90015 L 610.20046 240.6993 L 613.79916 242.39967 L 624.19935 241.00018 L 633.39998 242.3007 L 635.70014 242.90048 L 636.20095 251.00052 L 643.80018 256.40054 L 646.10033 256.60047 L 643.29937 262.09947 L 648.09961 267.00067 L 650.99955 271.39907 L 656.79943 270.70032 L 672.9995 274.79982 L 674.8998 277.20093 L 686.60052 280.90058 L 691.09988 278.89933 L 697.40056 282.80088 L 704.59994 282.5 L 707.4009 279.79999 L 704.99979 277.20093 L 706.99907 271.69995 L 704.59994 268.80001 L 704.79986 263.39999 L 703.00052 256.8004 L 702.80059 250.80059 L 699.7997 249.39912 L 693.70091 250.49971 L 690.70002 249.59905 L 688.79972 244.4999 L 685.69985 247.30087 L 682.70094 245.29961 L 680.29983 246.89904 L 672.30074 245.20064 L 672.9995 242.70056 L 667.5005 241.79989 L 664.40063 239.60069 L 660.49908 236.90068 L 663.39902 229.00057 L 659.20054 226.30056 L 663.80085 214.00006 L 658.69973 210.79924 L 657.30024 207.49944 L 653.80051 210.30041 L 650.50072 208.00025 L 647.09997 203.20001 L 642.20075 203.70082 L 638.60008 201.80052 L 639.10089 197.60006 L 636.20095 194.79909 L 635.99904 190.00083 L 632.00049 190.40069 L 629.59938 187.99958 z " fill="#77d677">
        <title>UE Slovenske Konjice</title>
    </path>
    <path id="UE-52"
          d="M 648.09961 267.00067 L 645.10069 271.60098 L 650.59969 274.29901 L 646.30026 279.99992 L 642.89951 279.69904 L 641.60097 284.60023 L 643.29937 288.20091 L 642.00083 290.90092 L 641.60097 296.19999 L 634.90043 300.0006 L 635.70014 305.89945 L 644.30098 308.10063 L 644.59989 312.99985 L 642.49966 316.09971 L 642.89951 319.70039 L 640.99921 322.6993 L 643.00046 327.69947 L 646.90004 330.99927 L 647.40085 338.89938 L 642.89951 340.1999 L 642.89951 344.40036 L 645.50055 349.29957 L 646.10033 353.19915 L 649.4991 360.49948 L 647.20092 361.90095 L 649.4991 366.00045 L 648.29954 372.69902 L 644.0001 378.50088 L 648.00063 380.70008 L 651.19948 378.7008 L 655.39993 381.49979 L 660.20018 382.2995 L 666.09903 382.49943 L 669.00095 380.50015 L 674.40097 381.89965 L 683.19977 380.30022 L 684.59926 376.40065 L 680.69968 373.39975 L 677.10099 367.59987 L 677.59981 363.79927 L 680.29983 359.09998 L 683.30072 359.20094 L 686.09971 362.99956 L 690.10024 361.40014 L 693.09915 351.70068 L 698.20027 350.69906 L 698.99998 345.29904 L 701.39912 342.69998 L 701.59904 339.09931 L 697.40056 336.10039 L 692.80025 336.79915 L 691.80061 339.20026 L 686.69949 340.10092 L 682.20013 337.10003 L 680.20085 334.09914 L 680.0999 327.00072 L 677.19996 325.10042 L 671.00022 314.59927 L 668.9 307.50085 L 678.50048 298.50015 L 684.90014 296.50087 L 688.79972 293.80086 L 697.40056 282.80088 L 691.09988 278.89933 L 686.60052 280.90058 L 674.8998 277.20093 L 672.9995 274.79982 L 656.79943 270.70032 L 650.99955 271.39907 L 648.09961 267.00067 z " fill="#77d677">
        <title>UE Šentjur pri Celju</title>
    </path>
    <path id="UE-53"
          d="M 237.80069 280.50073 L 234.30096 282.80088 L 232.89949 301.79994 L 228.79999 302.30075 L 221.0998 299.29986 L 212.59991 295.0994 L 201.59994 299.49979 L 200.6003 302.1998 L 204.89973 305.60055 L 205.60047 311.29947 L 204.49988 314.99912 L 200.8992 316.09971 L 198.89992 322.80026 L 198.10021 327.29962 L 199.69963 332.00089 L 203.59921 334.00016 L 207.9996 332.29979 L 210.60064 334.00016 L 215.69978 332.60067 L 226.69976 335.59958 L 226.69976 339.89902 L 225.30026 343.29976 L 221.0998 347.79912 L 221.00083 350.29921 L 217.20023 356.50092 L 217.09927 359.89969 L 212.29903 363.30044 L 208.59938 371.20055 L 208.90026 373.90056 L 212.29903 379.30059 L 212.70087 379.59949 L 220.50002 384.30076 L 224.19967 388.29931 L 227.29954 389.30093 L 229.10087 394.90088 L 231.80088 397.89979 L 234.59986 396.30037 L 236.79907 400.5998 L 236.10031 403.20084 L 241.10048 409.80043 L 248.29985 411 L 253.69988 403.69967 L 259.80064 402.80099 L 260.00057 399.60017 L 263.19941 395.90052 L 264.49993 395.59963 L 267.59979 393.00058 L 268.99929 387.40062 L 271.4004 384.30076 L 270.09988 377.60021 L 272.50099 371.80033 L 276.00071 367.99973 L 283.90082 367.30097 L 285.50024 363.39942 L 288.20025 362.70066 L 300.19987 365.8995 L 303.89952 365.40067 L 308.80071 368.10068 L 312.10051 364.10015 L 311.90058 360.89933 L 309.20057 358.59917 L 309.60042 353.19915 L 315.6992 349.4995 L 316.99972 345.9008 L 321.00026 343.00086 L 326.80013 342.80094 L 326.69918 339.20026 L 331.20052 339.29923 L 326.0994 327.29962 L 321.99989 327.8994 L 318.19929 324.50063 L 313.10015 325.10042 L 308.2999 319.50046 L 299.40016 319.19958 L 296.79912 313.70058 L 292.89954 316.60052 L 288.89901 310.89962 L 293.20042 308.70041 L 294.29903 305.09974 L 290.10056 301.40009 L 283.20008 300.09957 L 279.19955 297.70044 L 269.59907 297.30058 L 266.69913 294.29969 L 263.99912 286.90039 L 256.00003 282.39905 L 251.50067 284.49928 L 245.09903 281.50036 L 237.80069 280.50073 z " fill="#62c262">
        <title>UE Skofja Loka</title>
    </path>
    <path id="UE-54"
          d="M 722.59936 277.60079 L 718.29993 278.89933 L 712.30012 278.49947 L 709.29922 285.20001 L 704.59994 282.5 L 697.40056 282.80088 L 688.79972 293.80086 L 684.90014 296.50087 L 678.50048 298.50015 L 668.9 307.50085 L 671.00022 314.59927 L 677.19996 325.10042 L 680.0999 327.00072 L 680.20085 334.09914 L 682.20013 337.10003 L 686.69949 340.10092 L 691.80061 339.20026 L 692.80025 336.79915 L 697.40056 336.10039 L 701.59904 339.09931 L 701.39912 342.69998 L 698.99998 345.29904 L 698.20027 350.69906 L 693.09915 351.70068 L 690.10024 361.40014 L 686.09971 362.99956 L 683.30072 359.20094 L 680.29983 359.09998 L 677.59981 363.79927 L 677.10099 367.59987 L 680.69968 373.39975 L 684.59926 376.40065 L 683.19977 380.30022 L 690.70002 385.99915 L 693.99982 382.80031 L 697.49954 384.30076 L 699.90065 390.39954 L 703.20044 390.70042 L 705.19972 401.19959 L 704.99979 403.80062 L 711.10055 403.00091 L 719.29956 400.50083 L 720.80001 401.9993 L 718.29993 408.19903 L 713.89954 411.99964 L 715.00013 415.0995 L 720.09927 411.99964 L 724.00083 410.89904 L 727.30063 407.10042 L 737.59987 399.20031 L 739.30024 398.89943 L 743.30077 392.20087 L 748.00006 390.90035 L 752.8003 391.89998 L 754.9995 389.3999 L 759.59982 390.39954 L 761.39917 387.69953 L 752.69935 383.79995 L 748.50087 379.79942 L 744.50034 378.59985 L 738.19965 372.29916 L 732.99955 374.19946 L 731.2002 372.9999 L 730.29954 368.30061 L 726.50092 365.20074 L 724.00083 360.49948 L 726.20003 354.49967 L 724.60061 348.89972 L 721.30082 344.0005 L 726.90077 341.59939 L 723.50002 337.40091 L 727.30063 332.89957 L 732.3008 331.10022 L 734.19912 326.19903 L 738.19965 323.99982 L 738.19965 317.29928 L 736.09942 314.59927 L 737.59987 312.00021 L 745.60093 308.50049 L 746.80049 306.80011 L 755.50031 309.10027 L 764.09918 308.79939 L 772.70002 310.49976 L 771.30053 314.30037 L 776.90048 315.40096 L 782.70036 311.89926 L 785.6003 306.40026 L 785.29942 302.90053 L 787.90046 299.49979 L 784.60067 291.70063 L 777.39931 294.00079 L 774.29945 293.39903 L 772.10024 288.49981 L 767.80081 290.40011 L 765.30072 287.59915 L 751.60074 287.19929 L 746.40064 284.29935 L 736.09942 284.09942 L 734.39905 281.39941 L 731.00028 278.29954 L 724.60061 280.19985 L 722.59936 277.60079 z " fill="#77d677">
        <title>UE Smarje pri Jelsah</title>
    </path>
    <path id="UE-55"
          d="M 88.900159 203.70082 L 78.199084 207.00061 L 72.100303 207.00061 L 65.900568 213.80013 L 65.599687 221.10046 L 61.700109 226.39953 L 53.8 230.20013 L 49.30064 231.1008 L 40.899722 238.70002 L 35.899553 239.40076 L 30.099673 243.9991 L 23.800964 242.99946 L 20.200288 244.80079 L 22.399492 253.79951 L 24.000892 256.20062 L 19.800433 262.49933 L 16.199757 262.0005 L 12.899962 265.70015 L 12.700034 269.79965 L 8.8004567 272.49966 L -0.00031627308 273.40033 L 3.6003598 276.99902 L 5.5006617 280.90058 L 5.9005169 288.60076 L 9.8000946 299.00096 L 14.800264 303.10046 L 15.099165 305.00076 L 10.799733 312.20014 L 15.200119 315.49993 L 22.9003 313.59963 L 22.199564 307.59982 L 31.60012 307.70078 L 39.799131 309.5991 L 41.09965 312.20014 L 49.900423 313.79956 L 55.199493 313.79956 L 60.500544 317.60016 L 61.599156 325.7002 L 65.700641 326.40093 L 69.600218 324.79953 L 76.999519 324.59961 L 77.599301 326.89976 L 82.999326 325.30034 L 83.799036 323.29909 L 90.899435 326.10005 L 94.500111 331.70001 L 93.599447 333.40038 L 96.800268 333.0995 L 100.69985 341.19954 L 102.80008 349.00067 L 106.09987 354.49967 L 109.30069 354.09981 L 119.00015 361.99992 L 123.69944 362.70066 L 125.99959 366.69921 L 128.29975 367.20002 L 131.39962 362.70066 L 134.49949 363.90022 L 138.89987 363.19949 L 140.89915 368.50054 L 139.60061 372.49909 L 143.99902 377.0994 L 140.49929 379.59949 L 140.29936 389.59983 L 145.29953 396.5003 L 148.19947 403.00091 L 154.19928 405.99983 L 160.10011 410.89904 L 160.19909 401.50047 L 162.80013 395.30073 L 162.09939 389.79975 L 158.7996 389.70078 L 158.70062 382.49943 L 165.39919 386.40099 L 166.4008 381.29986 L 169.30074 382.40045 L 172.60054 376.8005 L 170.79921 371.60041 L 171.40097 360.89933 L 165.19926 352.59937 L 168.00022 349.09964 L 167.09956 342.89991 L 174.90069 336.30032 L 176.59909 332.60067 L 188.09987 329.7997 L 194.40056 330.30051 L 198.89992 322.80026 L 200.8992 316.09971 L 204.49988 314.99912 L 205.60047 311.29947 L 204.89973 305.60055 L 200.6003 302.1998 L 196.79969 302.10082 L 191.70055 303.90017 L 189.40039 302.10082 L 185.59979 304.69988 L 174.50084 305.89945 L 171.30002 305.29967 L 167.49941 307.3999 L 162.49925 307.3999 L 156.00061 305.69952 L 148.90021 301.40009 L 142.10069 301.40009 L 140.00046 300.40045 L 126.7993 290.60004 L 123.00068 290.49909 L 121.19935 286.10068 L 116.80094 281.19948 L 115.79933 276.10034 L 113.4002 274.09909 L 120.10074 267.20059 L 118.89919 257.00033 L 123.29958 252.70089 L 130.00012 250.49971 L 134.20058 246.40021 L 146.60005 242.3007 L 149.69992 235.69913 L 145.69939 234.29964 L 142.70048 231.30072 L 143.10033 228.0999 L 140.09944 220.39972 L 135.8 219.00023 L 131.19969 214.9997 L 124.49915 214.19999 L 121.70016 212.49961 L 118.00051 207.09959 L 113.4002 208.99989 L 110.70018 211.80086 L 105.19921 213.20035 L 99.199399 216.19926 L 98.100787 214.50087 L 100.19904 207.8993 L 97.599978 206.49981 L 90.600533 206.80069 L 88.900159 203.70082 z " fill="#006400">
        <title>UE Tolmin</title>
    </path>
    <path id="UE-56"
          d="m 541.9,320.7 -1.2,1.7 -9.1,1.3 -2.4,-2.2 -0.8,2.3 4.3,3.7 -2.8,3.4 -4.6,3.2 4.6,2.6 2.5,-0.4 0.3,6 4.5,8.4 0.8,3.9 -7.3,6.1 -3.7,0.6 -0.2,0.6 2.2,2 13.7,5.8 3.2,-2.1 4.2,5.8 4.4,3.7 5.8,-1.2 0.4,-6.6 -1.9,-2.3 -0.6,-4.8 -6,-2.1 -4.4,-7.3 -1.4,-6.5 3.9,-4.2 4.2,-2.4 -1.5,-3.6 1.4,-3.5 8.7,-2.5 -0.8,-2.9 0.2,-1.8 -2.9,-1.6 -7.4,3.5 -8.7,-2.6 z" fill="#268826">
        <title>UE Trbovlje</title>
    </path>
    <path id="UE-57"
          d="M 555.40051 402.80099 L 554.40087 407.30035 L 546.30083 406.90049 L 545.29922 411.10095 L 535.99961 411 L 535.99961 414.09986 L 538.29977 419.80077 L 537.80094 422.99961 L 532.19901 426.20043 L 531.90011 429.90008 L 527.00089 430.49987 L 522.80043 427.29904 L 517.49938 426.80022 L 516.29982 424.80094 L 510.89979 423.19954 L 507.79993 425.20079 L 507.99985 429.5992 L 503.19961 430.49987 L 498.5993 435.10018 L 494.69972 437.40034 L 489.69955 438.39997 L 490.49926 443.60007 L 487.59932 447.49965 L 489.49962 456.19947 L 482.79908 466.30076 L 487.30042 473.89999 L 491.90073 473.79903 L 498.39937 475.29948 L 501.00041 477.59964 L 506.00058 473.50013 L 508.79956 473.30021 L 512.09936 479.10009 L 511.6995 482.10098 L 513.79973 486.60034 L 521.19903 488.50064 L 526.70001 483.59945 L 533.80041 488.50064 L 537.30013 486.29946 L 536.5994 475.89926 L 541.59957 472.59947 L 544.60046 472.99932 L 545.20024 468.30004 L 553.19933 468.80085 L 553.79911 463.49979 L 558.79928 460.99971 L 558.59935 462.70008 L 566.00063 469.09975 L 572.09941 471.70078 L 578.29915 472.39954 L 585.19962 475.20051 L 592.30002 470.69917 L 596.50047 467.50033 L 596.50047 464.0006 L 599.60034 460.09905 L 596.59945 452.49982 L 601.99947 447.6006 L 600.70093 446.60096 L 592.8998 444.70066 L 588.20051 441.09999 L 587.20087 438.5999 L 580.39938 433.39981 L 575.70009 423.50042 L 580.90018 416.9998 L 579.39974 414.09986 L 574.99935 417.30069 L 571.49963 417.50061 L 569.30042 413.30015 L 562.0001 409.0997 L 559.80089 404.29945 L 555.40051 402.80099 z " fill="#90ee90">
        <title>UE Trebnje</title>
    </path>
    <path id="UE-58"
          d="m 346.4,214.4 -5.7,-10.4 -7.4,0.4 -7.4,2.7 -11.6,0.9 -5.5,2.9 -5.9,0.2 -2.2,-3.6 -5.9,-2.5 -8.7,2.1 -6.2,3.2 -1.3,4.8 3.2,0.2 2.6,2.7 -2.4,2.9 2.3,3.1 -1.1,6.1 0.6,12.2 -3.2,6.3 3,7.4 5.4,5.6 8.8,1.1 4.1,-1 6.8,2.7 0.2,-5.8 1.4,-2.3 4.9,-2.3 2.5,-4.9 10.2,1.3 6.3,-1.4 1.1,-3.7 -1.7,-8.1 4,-1.4 1.6,-2.6 -0.9,-4.2 4.1,-3.7 0.2,-5.2 z" fill="#62c262">
        <title>UE Tržič</title>
    </path>
    <path id="UE-59"
          d="M 512.8001 199.30043 L 515.19923 204.79943 L 509.90016 206.2009 L 506.89926 210.19946 L 498.90018 210.10048 L 493.59913 216.10029 L 489.09977 216.10029 L 495.09958 218.8003 L 493.70008 225.10099 L 495.49943 229.69932 L 497.59966 230.49903 L 502.90071 224.49923 L 507.90088 223.80047 L 514.9993 231.1008 L 517.40041 230.00021 L 526.1992 229.69932 L 526.70001 237.30053 L 526.59906 248.59941 L 530.30069 256.60047 L 539.60029 262.49933 L 542.90009 267.4995 L 543.20097 270.30046 L 545.29922 269.1009 L 546.50076 263.70087 L 546.50076 255.69981 L 548.50004 249.7 L 549.4007 249.19919 L 552.30064 250.00088 L 553.19933 253.99943 L 562.70083 259.19953 L 563.9004 265.30029 L 566.69939 265.70015 L 568.90057 261.20079 L 572.09941 260.59902 L 573.30096 256.29959 L 578.79995 254.99907 L 586.50014 263.9008 L 590.39971 260.50005 L 594.40024 252.29906 L 592.8998 247.10094 L 590.19979 242.70056 L 588.29948 235.60016 L 588.49941 231.79955 L 583.49924 229.89925 L 585.59947 224.20033 L 585.59947 220.50068 L 581.39901 220.59965 L 575.59913 224.2993 L 567.79998 219.00023 L 567.40012 216.59912 L 564.99901 212.89947 L 557.10088 209.19982 L 556.49912 214.59984 L 553.70013 212.20071 L 546.19988 208.99989 L 541.30066 208.70099 L 533.40056 206.49981 L 529.99981 207.49944 L 519.79954 201.09978 L 512.8001 199.30043 z " fill="#77d677">
        <title>UE Velenje</title>
    </path>
    <path id="UE-60"
          d="M 328.39956 398.80046 L 323.10048 398.89943 L 318.90003 402.10025 L 319.49981 405.99983 L 312.19948 407.90013 L 308.60079 407.50027 L 300.30082 411.79971 L 293.20042 411.90066 L 293.69925 416.9998 L 289.10092 413.89994 L 282.20045 412.79935 L 278.90065 408.80079 L 282.8992 405.00019 L 281.49971 402.39915 L 272.50099 403.20084 L 267.90067 401.19959 L 264.89978 401.7004 L 264.10007 410.20029 L 267.30089 408.69984 L 272.00018 409.40058 L 279.39948 415.0995 L 272.09915 420.60048 L 272.00018 425.20079 L 275.10005 429.10037 L 269.59907 432.69907 L 272.90084 436.80055 L 280.59905 437.89917 L 285.59922 441.49984 L 287.00069 445.19949 L 298.20059 457.69992 L 300.50075 466.10083 L 303.89952 463.09994 L 307.99902 463.09994 L 313.69993 469.60056 L 318.10032 469.2007 L 318.50017 473.50013 L 321.60004 473.59911 L 323.79924 470.49924 L 323.9002 470.49924 L 329.9 478.59928 L 332.70097 479.69987 L 335.69988 472.59947 L 338.79975 473.19925 L 336.89945 470.09938 L 334.70024 461.99935 L 338.70078 460.00007 L 339.1996 449.70083 L 336.40062 446.10016 L 334.39936 447.40067 L 330.00096 445.10052 L 322.59968 436.4007 L 321.00026 432.90098 L 322.19982 429.39927 L 327.30094 425.40072 L 322.99953 415.29943 L 325.00079 410.69912 L 328.19963 409.49955 L 335.30003 409.89941 L 332.70097 405.90085 L 332.40009 401.50047 L 328.39956 398.80046 z " fill="#268826">
        <title>UE Vrhnika</title>
    </path>
    <path id="UE-61"
          d="m 526.8,361.9 2.1,5.5 -1.1,3.9 -3.9,1.3 1.5,5.7 -1.9,7.9 2.8,2.5 6.5,1.1 7.8,-4.9 8.8,-2.4 5.1,-5.4 -4.4,-3.7 -4.2,-5.8 -3.2,2.1 -13.7,-5.8 z m -32.2,-44.9 1.4,8.1 -4.9,6.4 -5.4,-1.5 -3.6,2.6 -5.3,1.3 h -6.2 l 0.7,5 2.7,4.6 2.6,1.5 -2.9,4.6 0.4,4.3 5.7,-0.3 2.2,-1.6 3.9,1.2 6.2,-0.4 1,1.3 -0.2,10.3 0.6,4.8 2.3,1.6 3.5,-1.3 8.3,1 5.7,-2.3 2.2,-4.2 8.7,-5.6 2.8,2.9 3.7,-0.6 7.3,-6.1 -0.8,-3.9 -4.5,-8.4 -0.3,-6 -2.5,0.4 -4.6,-2.6 4.6,-3.2 2.8,-3.4 -4.3,-3.7 0.8,-2.3 -5.1,0.6 -2.3,-1.3 -4.3,1.5 -7.4,3.4 -4.9,0.5 -3.2,-4.4 -3.9,-1.5 -0.2,-4.3 z" fill="#268826">
        <title>UE Zagorje ob Savi</title>
    </path>
    <path id="UE-62"
          d="M 549.4007 249.19919 L 548.50004 249.7 L 546.50076 255.69981 L 546.50076 263.70087 L 545.29922 269.1009 L 543.20097 270.30046 L 542.90009 267.4995 L 539.60029 262.49933 L 530.30069 256.60047 L 524.90066 259.90027 L 523.49919 263.00013 L 524.10095 266.80074 L 520.79918 268.49913 L 517.69931 272.89952 L 518.59998 276.7991 L 516.40077 282.39905 L 510.10008 282.69993 L 506.89926 286.10068 L 501.49924 289.09959 L 501.60019 292.30041 L 493.1003 290.40011 L 494.80067 295.20035 L 489.80051 301.79994 L 490.49926 303.79922 L 496.60002 304.89981 L 498.99915 310.40079 L 497.90054 316.00074 L 498.10047 320.30017 L 502.00005 321.80062 L 505.20087 326.19903 L 510.10008 325.7002 L 517.49938 322.29945 L 521.8008 320.80098 L 524.10095 322.09952 L 529.2001 321.49974 L 531.59923 323.70092 L 540.70088 322.4004 L 541.90045 320.70003 L 543.49987 324.70056 L 552.19969 327.29962 L 559.60097 323.7999 L 562.50091 325.39932 L 562.30098 327.20064 L 563.79945 328.09933 L 575.19928 326.10005 L 577.89929 324.79953 L 583.40027 327.49955 L 587.6997 325.7002 L 593.20068 325.79917 L 596.10062 320.59908 L 596.90033 316.29964 L 596.30055 310.69969 L 598.89961 304.30003 L 599.49939 299.09993 L 597.50011 297.30058 L 596.10062 287.39922 L 598.80063 280.70065 L 597.59909 277.89969 L 599.80027 265.19934 L 590.39971 260.50005 L 586.50014 263.9008 L 578.79995 254.99907 L 573.30096 256.29959 L 572.09941 260.59902 L 568.90057 261.20079 L 566.69939 265.70015 L 563.9004 265.30029 L 562.70083 259.19953 L 553.19933 253.99943 L 552.30064 250.00088 L 549.4007 249.19919 z " fill="#77d677">
        <title>UE Zalec</title>
    </path>
    <path id="UE-64"
          d="M 701.59904 115.40013 L 696.4999 120.89913 L 696.69983 127.99952 L 699.30087 133.70043 L 705.90046 135.80066 L 703.20044 140.30002 L 704.09913 146.00093 L 707.20097 149.30072 L 709.60011 152.29963 L 706.70017 161.70019 L 705.7995 170.99979 L 709.90099 174.00069 L 704.00015 176.10091 L 702.00088 179.69961 L 703.49935 186.09927 L 707.29995 187.79965 L 705.70053 194.30026 L 711.90026 195.89968 L 717.59919 202.09942 L 730.49947 207.69937 L 731.60006 210.99917 L 742.00025 213.6002 L 743.39975 217.60074 L 748.7008 221.39936 L 760.30056 214.90072 L 763.89925 211.80086 L 766.90015 209.19982 L 776.90048 212.40064 L 780.69911 207.20054 L 785.40038 210.30041 L 784.89957 205.90002 L 786.50097 201.09978 L 792.50077 198.70065 L 789.60083 197.69903 L 784.49971 192.70084 L 779.40057 193.1007 L 780.20028 190.20076 L 787.59958 184.29993 L 790.8004 183.99904 L 791.20025 179.89954 L 788.30032 177.39945 L 788.59922 174.40054 L 793.10056 172.90009 L 791.99997 169.20044 L 788.70017 165.70072 L 782.59941 162.80078 L 782.99926 159.09915 L 777.9991 155.1006 L 775.90085 157.40076 L 771.30053 156.19921 L 776.79953 152.89942 L 776.39967 149.9005 L 772.10024 144.79938 L 767.49993 146.0999 L 762.40078 149.79955 L 758.40025 145.10026 L 749.70043 141.40061 L 750.10029 134.59911 L 746.80049 133.10065 L 737.39994 134.70007 L 731.2002 132.09903 L 731.99991 127.99952 L 726.99974 123.50016 L 722.99921 122.50053 L 722.50038 118.39904 L 711.59938 119.09978 L 709.0993 117.1005 L 703.69927 116.99955 L 701.59904 115.40013 z " fill="#389a38">
        <title>UE Maribor</title>
    </path>
    <path id="UE-65"
          d="M 783.10022 80.299968 L 777.30034 84.3005 L 772.70002 84.799329 L 767.80081 83.799691 L 762.89961 85.800946 L 753.49906 84.3005 L 746.69954 80.499896 L 738.5995 81.099679 L 740.00098 87.299414 L 734.30007 88.500959 L 733.19948 92.49951 L 729.89968 93.499148 L 724.29973 92.600464 L 720.69906 88.599933 L 719.20059 91.6998 L 712.10019 93.200247 L 708.89937 97.600633 L 704.29906 98.200416 L 707.20097 105.99957 L 704.29906 110.50091 L 706.50024 112.10033 L 703.69927 116.99955 L 709.0993 117.1005 L 711.59938 119.09978 L 722.50038 118.39904 L 722.99921 122.50053 L 726.99974 123.50016 L 731.99991 127.99952 L 731.2002 132.09903 L 737.39994 134.70007 L 746.80049 133.10065 L 750.10029 134.59911 L 749.70043 141.40061 L 758.40025 145.10026 L 762.40078 149.79955 L 767.49993 146.0999 L 772.10024 144.79938 L 774.49937 140.10009 L 771.79936 135.49978 L 771.59943 129.39902 L 775.40004 120.00044 L 775.29908 116.19984 L 777.9991 115.60005 L 782.59941 109.80018 L 787.39965 109.29937 L 783.50007 101.70014 L 787.19972 97.800561 L 788.50024 94.300838 L 787.59958 88.400005 L 789.40091 84.900282 L 787.90046 85.699993 L 783.10022 80.299968 z " fill="#389a38">
        <title>UE Pesnica</title>
    </path>
    <path id="UE-68"
          d="M 661.99952 104.90096 L 658.09995 105.79964 L 661.30077 109.80018 L 666.39991 113.49983 L 668.30021 116.19984 L 668.50014 122.19964 L 671.20015 125.20054 L 671.29913 128.30041 L 667.90036 132.30094 L 668.70007 138.50067 L 671.60001 139.50031 L 670.09956 141.09973 L 670.40044 146.29983 L 665.00042 148.09918 L 657.79907 139.70024 L 649.00027 138.19979 L 645.79945 140.40097 L 648.00063 145.39916 L 647.80071 148.59998 L 639.9006 152.60052 L 638.60008 164.60013 L 633.20005 172.90009 L 629.30048 178.59902 L 628.70069 182.79948 L 629.59938 187.99958 L 632.00049 190.40069 L 635.99904 190.00083 L 645.9004 189.10017 L 646.39923 193.1007 L 649.29917 194.99902 L 654.89913 189.60098 L 659.69937 189.39907 L 665.00042 189.30009 L 674.80083 186.49913 L 681.69932 181.90079 L 689.3995 179.40071 L 699.30087 180.8002 L 702.00088 179.69961 L 704.00015 176.10091 L 709.90099 174.00069 L 705.7995 170.99979 L 706.70017 161.70019 L 709.60011 152.29963 L 707.20097 149.30072 L 704.09913 146.00093 L 703.20044 140.30002 L 705.90046 135.80066 L 699.30087 133.70043 L 696.69983 127.99952 L 696.4999 120.89913 L 690.70002 124.60076 L 686.20066 121.30096 L 681.09954 125.40047 L 677.79974 123.90002 L 678.30055 120.49927 L 675.40061 117.1005 L 676.00039 112.90004 L 673.70024 111.10069 L 670.29949 112.30026 L 665.00042 106.1995 L 661.99952 104.90096 z " fill="#389a38">
        <title>UE Ruše</title>
    </path>
<text x="70" y="30" font-family="Trebuchet MS" font-size="32" font-weight="bold">Accidents with exceeded alcohol value per ordered breathalysers</text></svg>
